G04 DesignSpark PCB Gerber Version 9.0 Build 5138 *
%FSLAX35Y35*%
%MOMM*%
%ADD78R,2.75400X2.75400*%
%ADD81C,1.75400*%
%ADD71C,1.77800*%
%ADD138C,2.05400*%
%ADD20C,2.25400*%
%ADD77C,2.75400*%
%ADD130C,3.45400*%
%ADD79C,3.75400*%
X0Y0D02*
D02*
D71*
X3560240Y8202740D03*
Y8442740D03*
Y8702740D03*
Y8947740D03*
D02*
D20*
X190240Y413240D03*
Y1463240D03*
Y2288240D03*
Y3338240D03*
X773240Y4903740D03*
Y5403740D03*
X781240Y7436740D03*
X1031240D03*
X1273240Y4903740D03*
Y5403740D03*
X1281240Y7436740D03*
X1440240Y413240D03*
Y1463240D03*
Y2288240D03*
Y3338240D03*
X1722740Y9498240D03*
Y10548240D03*
X1763240Y3915240D03*
Y4165240D03*
Y4415240D03*
X1790240Y5613240D03*
Y6663240D03*
X1972740Y9498240D03*
Y10548240D03*
X2052740Y5613240D03*
Y6663240D03*
X2315240Y5613240D03*
Y6663240D03*
X2740240Y413240D03*
Y1463240D03*
Y2288240D03*
Y3338240D03*
X2805240Y4903740D03*
Y5403740D03*
X2813240Y3915240D03*
Y4165240D03*
Y4415240D03*
Y7431740D03*
X3063240D03*
X3305240Y4903740D03*
Y5403740D03*
X3313240Y7431740D03*
D02*
D77*
X777240Y502240D03*
Y1332240D03*
Y2377240D03*
Y3207240D03*
X1031240Y9698240D03*
Y10528240D03*
X2030240Y502240D03*
Y1332240D03*
Y2377240D03*
Y3207240D03*
X3063240Y9698240D03*
Y10528240D03*
X3317240Y502240D03*
Y1332240D03*
Y2377240D03*
Y3207240D03*
D02*
D78*
X777240Y192240D03*
Y2067240D03*
X1031240Y10838240D03*
X2030240Y192240D03*
Y2067240D03*
X3063240Y10838240D03*
X3317240Y192240D03*
Y2067240D03*
D02*
D79*
X606240Y6691740D03*
X1456240D03*
X2638240Y6686740D03*
X3488240D03*
D02*
D81*
X775240Y1588930D03*
Y1795240D03*
Y3458930D03*
Y3665240D03*
X2035240Y1588930D03*
Y1795240D03*
Y3458930D03*
Y3665240D03*
X3315240Y1588930D03*
Y1795240D03*
Y3458930D03*
Y3665240D03*
D02*
D130*
X1990240Y4990240D03*
D02*
D138*
X535740Y4084740D03*
Y4338740D03*
X789740Y4084740D03*
Y4338740D03*
X1043740Y4084740D03*
Y4338740D03*
X1297740Y4084740D03*
X1299240Y4340240D03*
X1717740Y8986740D03*
X1719240Y8223240D03*
Y8477240D03*
Y8731240D03*
X1973240Y8223240D03*
Y8477240D03*
Y8731240D03*
Y8985240D03*
X2540240Y9149240D03*
X2541740Y8385740D03*
Y8639740D03*
Y8893740D03*
X2795740Y8385740D03*
Y8639740D03*
Y8893740D03*
Y9147740D03*
X0Y0D02*
M02*
