G04 DesignSpark PCB Gerber Version 9.0 Build 5138 *
%FSLAX35Y35*%
%MOMM*%
%ADD87C,0.02540*%
%ADD142C,4.00000*%
%ADD140C,7.00000*%
%ADD93C,8.00000*%
%ADD141C,10.00000*%
X0Y0D02*
D02*
D87*
X905720Y228480D02*
X1033260D01*
X1032670Y222620*
X1031500Y217150*
X1029940Y211880*
X1027790Y207000*
X1025250Y202310*
X1022320Y197820*
X1019000Y193720*
X1015090Y190010*
X1010790Y186490*
X1006300Y183560*
X1001420Y181020*
X996340Y179070*
X990870Y177510*
X985400Y176330*
X979350Y175550*
X973290Y175360*
X966260Y175750*
X959620Y176720*
X953180Y178290*
X947120Y180440*
X941460Y183360*
X935990Y186690*
X931110Y190790*
X926610Y195470*
X914900Y182000*
X920360Y176330*
X926420Y171260*
X933060Y166960*
X940290Y163440*
X944190Y161880*
X948100Y160710*
X952200Y159540*
X956300Y158760*
X960600Y157970*
X964900Y157580*
X969390Y157190*
X973880*
X979540*
X985210Y157780*
X990680Y158560*
X995950Y159540*
X1001030Y160900*
X1006110Y162660*
X1010790Y164810*
X1015480Y167150*
X1019780Y169690*
X1024080Y172620*
X1027980Y175750*
X1031500Y179070*
X1035010Y182580*
X1038140Y186490*
X1041070Y190400*
X1043800Y194890*
X1046150Y199380*
X1048100Y203870*
X1049860Y208760*
X1051420Y213640*
X1052400Y218720*
X1053180Y223990*
X1053760Y229260*
X1053960Y234930*
X1053760Y240400*
X1053370Y245670*
X1052590Y250940*
X1051420Y256020*
X1050050Y260900*
X1048490Y265790*
X1046540Y270280*
X1044190Y274770*
X1041650Y279070*
X1038920Y283170*
X1035790Y287080*
X1032670Y290590*
X1029150Y293910*
X1025440Y297040*
X1021540Y299770*
X1017440Y302310*
X1013140Y304650*
X1008840Y306800*
X1004150Y308360*
X999470Y309730*
X994580Y310900*
X989700Y311690*
X984620Y312080*
X979350Y312270*
X974080Y312080*
X969000Y311690*
X964110Y310900*
X959230Y309730*
X954540Y308360*
X950050Y306800*
X945560Y304650*
X941260Y302310*
X937360Y299770*
X933450Y297040*
X929740Y293910*
X926420Y290590*
X923100Y287080*
X920170Y283360*
X917440Y279260*
X914900Y274970*
X912750Y270470*
X910790Y265980*
X909040Y261100*
X907860Y256220*
X906690Y251140*
X905910Y245860*
X905520Y240400*
X905330Y234930*
X905720Y228480*
X979350Y294500D02*
X984820Y294300D01*
X989900Y293720*
X994970Y292540*
X999660Y290980*
X1004150Y289030*
X1008450Y286690*
X1012550Y283760*
X1016260Y280440*
X1019780Y276920*
X1022900Y273010*
X1025640Y268720*
X1027980Y264220*
X1029940Y259540*
X1031500Y254650*
X1032670Y249380*
X1033260Y243910*
X925050*
X925830Y249380*
X927010Y254650*
X928370Y259540*
X930330Y264220*
X932670Y268720*
X935400Y273010*
X938530Y276920*
X942040Y280440*
X945950Y283760*
X950050Y286690*
X954350Y289030*
X958840Y290980*
X963720Y292540*
X968610Y293720*
X973880Y294300*
X979350Y294500*
X725830Y311100D02*
Y158560D01*
X745560*
Y186490*
X747710Y182970*
X750050Y179850*
X752590Y176720*
X755130Y173990*
X758060Y171450*
X761190Y168910*
X764510Y166760*
X767830Y164810*
X771540Y163050*
X775250Y161490*
X779150Y160120*
X783060Y158950*
X787160Y158170*
X791460Y157580*
X795950Y157190*
X800440*
X807670Y157390*
X814510Y158170*
X820950Y159540*
X827010Y161290*
X832860Y163640*
X838140Y166370*
X843020Y169890*
X847510Y173790*
X851610Y178090*
X855130Y182970*
X858060Y188440*
X860400Y194300*
X862360Y200750*
X863720Y207580*
X864510Y214810*
X864700Y222620*
Y311100*
X844190*
Y224770*
X844000Y218910*
X843410Y213440*
X842440Y208170*
X841260Y203480*
X839510Y199190*
X837550Y195080*
X835010Y191370*
X832280Y188050*
X829150Y185120*
X825640Y182580*
X821930Y180440*
X817830Y178680*
X813530Y177310*
X808840Y176330*
X803760Y175940*
X798290Y175750*
X792440Y175940*
X786970Y176530*
X781690Y177700*
X776810Y179260*
X772320Y181410*
X768020Y183950*
X763920Y186880*
X760400Y190200*
X757080Y194110*
X754350Y198400*
X751810Y202900*
X749860Y207780*
X748490Y213050*
X747320Y218720*
X746730Y224770*
X746540Y231020*
Y311100*
X725830*
X648490Y281220D02*
X646540Y284930D01*
X644390Y288440*
X642040Y291760*
X639510Y294690*
X636580Y297430*
X633650Y299970*
X630330Y302310*
X626810Y304460*
X623100Y306220*
X619190Y307780*
X615090Y309150*
X610790Y310320*
X606300Y311100*
X601420Y311690*
X596540Y312080*
X591260Y312270*
Y292350*
X596340Y292540*
X602200Y292350*
X607670Y291570*
X612940Y290400*
X617830Y288830*
X622320Y286690*
X626420Y284150*
X630330Y281220*
X634040Y277700*
X637160Y273790*
X639900Y269690*
X642240Y265010*
X644190Y259930*
X645760Y254650*
X646730Y248790*
X647320Y242740*
X647710Y236290*
Y158560*
X668220*
Y311100*
X648490*
Y281220*
X489700Y157190D02*
X495170D01*
X500440Y157780*
X505520Y158560*
X510600Y159540*
X515480Y160900*
X520170Y162660*
X524860Y164810*
X529350Y167150*
X533650Y169690*
X537750Y172620*
X541650Y175750*
X545170Y179070*
X548490Y182580*
X551610Y186490*
X554540Y190400*
X557280Y194890*
X559620Y199380*
X561580Y203870*
X563330Y208760*
X564900Y213640*
X565870Y218720*
X566650Y223990*
X567240Y229260*
X567440Y234930*
X567240Y240400*
X566650Y245670*
X565870Y250940*
X564900Y256020*
X563330Y260900*
X561580Y265790*
X559620Y270280*
X557280Y274770*
X554540Y279070*
X551610Y283170*
X548490Y287080*
X545170Y290590*
X541650Y293910*
X537750Y297040*
X533650Y299770*
X529350Y302310*
X524860Y304650*
X520170Y306800*
X515480Y308360*
X510600Y309730*
X505520Y310900*
X500440Y311690*
X495170Y312080*
X489700Y312270*
X484230Y312080*
X478960Y311690*
X473690Y310900*
X468610Y309730*
X463720Y308360*
X459040Y306800*
X454350Y304650*
X449860Y302310*
X445560Y299770*
X441460Y297040*
X437750Y293910*
X434040Y290590*
X430720Y287080*
X427590Y283170*
X424860Y279070*
X422120Y274770*
X419780Y270280*
X417830Y265790*
X416070Y260900*
X414700Y256020*
X413530Y250940*
X412750Y245670*
X412360Y240400*
X412160Y234930*
X412360Y229260*
X412750Y223990*
X413530Y218720*
X414700Y213640*
X416070Y208760*
X417830Y203870*
X419780Y199380*
X422120Y194890*
X424860Y190400*
X427590Y186490*
X430720Y182580*
X434040Y179070*
X437750Y175750*
X441460Y172620*
X445560Y169690*
X449860Y167150*
X454350Y164810*
X459040Y162660*
X463720Y160900*
X468610Y159540*
X473690Y158560*
X478960Y157780*
X484230Y157190*
X489700*
Y175360D02*
X485600Y175550D01*
X481690Y175750*
X477980Y176330*
X474270Y177310*
X470560Y178290*
X467240Y179460*
X463720Y181020*
X460400Y182780*
X457280Y184730*
X454350Y186880*
X451610Y189220*
X449080Y191760*
X446540Y194500*
X444390Y197430*
X442240Y200550*
X440290Y203870*
X438720Y207190*
X437160Y210900*
X435990Y214610*
X434820Y218330*
X434040Y222230*
X433450Y226330*
X433260Y230630*
X433060Y234930*
X433260Y239030*
X433450Y243330*
X434040Y247430*
X434820Y251330*
X435990Y255040*
X437160Y258760*
X438720Y262470*
X440290Y265790*
X444390Y272230*
X449080Y277900*
X454350Y282780*
X457280Y284930*
X460400Y286880*
X463720Y288640*
X467240Y290200*
X470560Y291370*
X474270Y292350*
X477980Y293330*
X481690Y293910*
X485600Y294110*
X489700Y294300*
X493610Y294110*
X497510Y293910*
X501420Y293330*
X505130Y292350*
X508650Y291370*
X512160Y290200*
X515480Y288640*
X518800Y286880*
X521930Y284930*
X524860Y282780*
X530330Y277900*
X535010Y272230*
X539110Y265790*
X540870Y262470*
X542240Y258760*
X543610Y255040*
X544580Y251330*
X545360Y247430*
X545950Y243330*
X546340Y239030*
X546540Y234930*
X546340Y230630*
X545950Y226330*
X545360Y222230*
X544580Y218330*
X543610Y214610*
X542240Y210900*
X540870Y207190*
X539110Y203870*
X537160Y200550*
X535010Y197430*
X532860Y194500*
X530330Y191760*
X527790Y189220*
X524860Y186880*
X521930Y184730*
X518800Y182780*
X515480Y181020*
X512160Y179460*
X508650Y178290*
X505130Y177310*
X501420Y176330*
X497510Y175750*
X493610Y175550*
X489700Y175360*
X291650Y312270D02*
X286190Y312080D01*
X281110Y311690*
X276030Y310900*
X271150Y309730*
X266260Y308560*
X261580Y306800*
X257080Y304850*
X252790Y302510*
X248490Y299970*
X244390Y297230*
X240680Y294110*
X237160Y290790*
X233840Y287270*
X230910Y283560*
X227980Y279460*
X225440Y275160*
X223100Y270670*
X221150Y265980*
X219390Y261100*
X218020Y256220*
X217040Y251140*
X216260Y245860*
X215680Y240400*
X215480Y234930*
X215680Y229260*
X216260Y223600*
X217040Y218330*
X218020Y213250*
X219390Y208170*
X221150Y203290*
X223100Y198790*
X225440Y194300*
X227980Y190010*
X230910Y185900*
X233840Y182000*
X237160Y178480*
X240680Y175160*
X244390Y172230*
X248290Y169300*
X252590Y166760*
X256890Y164610*
X261380Y162470*
X266070Y160900*
X270950Y159540*
X275830Y158560*
X280910Y157780*
X286190Y157190*
X291650*
X296150*
X300640Y157580*
X304940Y158170*
X309230Y158950*
X313330Y160120*
X317440Y161490*
X321340Y163050*
X325050Y164810*
X328760Y166760*
X332280Y169110*
X335600Y171450*
X338720Y174190*
X341650Y177110*
X344390Y180240*
X347120Y183760*
X349660Y187270*
Y102310*
X370170*
Y311100*
X350440*
Y281020*
X348100Y284540*
X345360Y288050*
X342630Y291180*
X339700Y294300*
X336580Y297040*
X333260Y299580*
X329540Y301920*
X325830Y304070*
X322120Y306020*
X318020Y307780*
X313920Y309150*
X309620Y310320*
X305330Y311100*
X300830Y311690*
X296340Y312080*
X291650Y312270*
X293020Y175360D02*
X289110Y175550D01*
X285210Y175750*
X281500Y176330*
X277790Y177310*
X274270Y178290*
X270760Y179460*
X267240Y181020*
X263920Y182780*
X260790Y184730*
X257860Y186880*
X254940Y189220*
X252400Y191760*
X249860Y194500*
X247710Y197430*
X245560Y200550*
X243610Y203870*
X241850Y207190*
X240290Y210900*
X239110Y214610*
X237940Y218330*
X237160Y222230*
X236580Y226330*
X236190Y230630*
Y234930*
Y239030*
X236580Y243330*
X237160Y247230*
X237940Y251330*
X239110Y255040*
X240290Y258760*
X241850Y262270*
X243610Y265790*
X247710Y272040*
X252400Y277700*
X257860Y282580*
X263920Y286690*
X267240Y288440*
X270760Y290010*
X274270Y291370*
X277790Y292350*
X281500Y293130*
X285210Y293720*
X289110Y294110*
X293020Y294300*
X296930Y294110*
X300830Y293720*
X304740Y293130*
X308450Y292350*
X311970Y291370*
X315480Y290010*
X318800Y288440*
X322120Y286690*
X328180Y282580*
X333650Y277700*
X338330Y272040*
X342440Y265790*
X344190Y262270*
X345760Y258760*
X346930Y255040*
X348100Y251330*
X348880Y247230*
X349470Y243330*
X349660Y239030*
X349860Y234930*
X349660Y230630*
X349470Y226330*
X348880Y222230*
X348100Y218330*
X346930Y214610*
X345760Y210900*
X344190Y207190*
X342440Y203870*
X340480Y200550*
X338330Y197430*
X336190Y194500*
X333650Y191760*
X331110Y189220*
X328180Y186880*
X325250Y184730*
X322120Y182780*
X318800Y181020*
X315480Y179460*
X311970Y178290*
X308450Y177310*
X304740Y176330*
X300830Y175750*
X296930Y175550*
X293020Y175360*
X173490Y311100D02*
X152980D01*
Y158560*
X173490*
Y311100*
X163140Y344500D02*
X166070Y344690D01*
X169000Y345470*
X171540Y346840*
X173690Y348790*
X175640Y351140*
X177010Y353680*
X177790Y356410*
X178180Y359340*
X177790Y362080*
X177010Y364610*
X175640Y367150*
X173690Y369500*
X171540Y371260*
X169000Y372620*
X166070Y373400*
X163140Y373790*
X160010Y373400*
X157080Y372620*
X154540Y371450*
X152400Y369500*
X150440Y367350*
X149080Y365010*
X148290Y362270*
X147900Y359540*
X148290Y356410*
X149080Y353680*
X150440Y351140*
X152400Y348790*
X154540Y346840*
X157080Y345470*
X160010Y344690*
X163140Y344500*
X349660Y104040D02*
X370170D01*
X349660Y106420D02*
X370170D01*
X349660Y108800D02*
X370170D01*
X349660Y111180D02*
X370170D01*
X349660Y113560D02*
X370170D01*
X349660Y115940D02*
X370170D01*
X349660Y118320D02*
X370170D01*
X349660Y120700D02*
X370170D01*
X349660Y123080D02*
X370170D01*
X349660Y125460D02*
X370170D01*
X349660Y127840D02*
X370170D01*
X349660Y130220D02*
X370170D01*
X349660Y132600D02*
X370170D01*
X349660Y134980D02*
X370170D01*
X349660Y137360D02*
X370170D01*
X349660Y139740D02*
X370170D01*
X349660Y142120D02*
X370170D01*
X349660Y144500D02*
X370170D01*
X349660Y146880D02*
X370170D01*
X349660Y149260D02*
X370170D01*
X349660Y151640D02*
X370170D01*
X349660Y154020D02*
X370170D01*
X349660Y156400D02*
X370170D01*
X152980Y158780D02*
X173490D01*
X274730D02*
X308300D01*
X349660D02*
X370170D01*
X472550D02*
X506660D01*
X647710D02*
X668220D01*
X725830D02*
X745560D01*
X783950D02*
X817380D01*
X956300D02*
X991860D01*
X152980Y161160D02*
X173490D01*
X265290D02*
X316450D01*
X349660D02*
X370170D01*
X463030D02*
X516170D01*
X647710D02*
X668220D01*
X725830D02*
X745560D01*
X776190D02*
X826560D01*
X946600D02*
X1001780D01*
X152980Y163540D02*
X173490D01*
X259140D02*
X322370D01*
X349660D02*
X370170D01*
X457120D02*
X522090D01*
X647710D02*
X668220D01*
X725830D02*
X745560D01*
X770510D02*
X832610D01*
X940080D02*
X1008030D01*
X152980Y165920D02*
X173490D01*
X254270D02*
X327160D01*
X349660D02*
X370170D01*
X452220D02*
X526990D01*
X647710D02*
X668220D01*
X725830D02*
X745560D01*
X765940D02*
X837270D01*
X935200D02*
X1013010D01*
X152980Y168300D02*
X173490D01*
X249980D02*
X331070D01*
X349660D02*
X370170D01*
X447910D02*
X531300D01*
X647710D02*
X668220D01*
X725830D02*
X745560D01*
X762130D02*
X840820D01*
X930990D02*
X1017430D01*
X152980Y170680D02*
X173490D01*
X246450D02*
X334510D01*
X349660D02*
X370170D01*
X444170D02*
X535040D01*
X647710D02*
X668220D01*
X725830D02*
X745560D01*
X759010D02*
X843930D01*
X927320D02*
X1021230D01*
X152980Y173060D02*
X173490D01*
X243340D02*
X337430D01*
X349660D02*
X370170D01*
X440940D02*
X538300D01*
X647710D02*
X668220D01*
X725830D02*
X745560D01*
X756200D02*
X846670D01*
X924270D02*
X1024630D01*
X152980Y175440D02*
X173490D01*
X240380D02*
X291370D01*
X294670D02*
X339970D01*
X349660D02*
X370170D01*
X438120D02*
X487970D01*
X491350D02*
X541260D01*
X647710D02*
X668220D01*
X725830D02*
X745560D01*
X753780D02*
X849080D01*
X921420D02*
X971850D01*
X975840D02*
X1027590D01*
X152980Y177820D02*
X173490D01*
X237860D02*
X275960D01*
X310280D02*
X342270D01*
X349660D02*
X370170D01*
X435440D02*
X472340D01*
X506960D02*
X543840D01*
X647710D02*
X668220D01*
X725830D02*
X745560D01*
X751700D02*
X781310D01*
X815130D02*
X851350D01*
X918930D02*
X955110D01*
X991960D02*
X1030170D01*
X152980Y180200D02*
X173490D01*
X235540D02*
X269090D01*
X317050D02*
X344360D01*
X349660D02*
X370170D01*
X432970D02*
X465570D01*
X513730D02*
X546240D01*
X647710D02*
X668220D01*
X725830D02*
X745560D01*
X749790D02*
X774850D01*
X821370D02*
X853130D01*
X916630D02*
X947800D01*
X999280D02*
X1032630D01*
X152980Y182580D02*
X173490D01*
X233400D02*
X264300D01*
X321740D02*
X346200D01*
X349660D02*
X370170D01*
X430720D02*
X460780D01*
X518420D02*
X548490D01*
X647710D02*
X668220D01*
X725830D02*
X745560D01*
X748000D02*
X770340D01*
X825640D02*
X854850D01*
X915400D02*
X942970D01*
X1004420D02*
X1035010D01*
X152980Y184960D02*
X173490D01*
X231620D02*
X260480D01*
X325560D02*
X347990D01*
X349660D02*
X370170D01*
X428810D02*
X456970D01*
X522240D02*
X550390D01*
X647710D02*
X668220D01*
X725830D02*
X745560D01*
X746490D02*
X766610D01*
X828930D02*
X856200D01*
X917470D02*
X938830D01*
X1008450D02*
X1036920D01*
X152980Y187340D02*
X173490D01*
X229880D02*
X257290D01*
X328760D02*
X370170D01*
X427000D02*
X453810D01*
X525440D02*
X552250D01*
X647710D02*
X668220D01*
X725830D02*
X763430D01*
X831520D02*
X857470D01*
X919540D02*
X935220D01*
X1011830D02*
X1038780D01*
X152980Y189720D02*
X173490D01*
X228190D02*
X254440D01*
X331610D02*
X370170D01*
X425330D02*
X451110D01*
X528290D02*
X554030D01*
X647710D02*
X668220D01*
X725830D02*
X760910D01*
X833650D02*
X858570D01*
X921610D02*
X932380D01*
X1014740D02*
X1040560D01*
X152980Y192100D02*
X173490D01*
X226740D02*
X252080D01*
X333970D02*
X370170D01*
X423820D02*
X448760D01*
X530640D02*
X555580D01*
X647710D02*
X668220D01*
X725830D02*
X758790D01*
X835510D02*
X859520D01*
X923680D02*
X929850D01*
X1017290D02*
X1042100D01*
X152980Y194480D02*
X173490D01*
X225350D02*
X249870D01*
X336190D02*
X370170D01*
X422370D02*
X446550D01*
X532860D02*
X557030D01*
X647710D02*
X668220D01*
X725830D02*
X756840D01*
X837140D02*
X860450D01*
X925750D02*
X927560D01*
X1019620D02*
X1043550D01*
X152980Y196860D02*
X173490D01*
X224110D02*
X248130D01*
X337910D02*
X370170D01*
X421090D02*
X444810D01*
X534590D02*
X558310D01*
X647710D02*
X668220D01*
X725830D02*
X755330D01*
X838400D02*
X861180D01*
X1021540D02*
X1044830D01*
X152980Y199240D02*
X173490D01*
X222910D02*
X246460D01*
X339580D02*
X370170D01*
X419850D02*
X443140D01*
X536260D02*
X559550D01*
X647710D02*
X668220D01*
X725830D02*
X753880D01*
X839530D02*
X861900D01*
X1023250D02*
X1046080D01*
X152980Y201620D02*
X173490D01*
X221870D02*
X244930D01*
X341110D02*
X370170D01*
X418810D02*
X441610D01*
X537790D02*
X560600D01*
X647710D02*
X668220D01*
X725830D02*
X752530D01*
X840500D02*
X862530D01*
X1024800D02*
X1047120D01*
X152980Y204000D02*
X173490D01*
X220890D02*
X243540D01*
X342510D02*
X370170D01*
X417780D02*
X440230D01*
X539180D02*
X561630D01*
X647710D02*
X668220D01*
X725830D02*
X751370D01*
X841390D02*
X863010D01*
X1026170D02*
X1048150D01*
X152980Y206380D02*
X173490D01*
X220040D02*
X242280D01*
X343760D02*
X370170D01*
X416930D02*
X439100D01*
X540440D02*
X562480D01*
X647710D02*
X668220D01*
X725830D02*
X750420D01*
X841990D02*
X863480D01*
X1027450D02*
X1049000D01*
X152980Y208760D02*
X173490D01*
X219230D02*
X241190D01*
X344850D02*
X370170D01*
X416070D02*
X438060D01*
X541450D02*
X563330D01*
X647710D02*
X668220D01*
X725830D02*
X749610D01*
X842550D02*
X863850D01*
X1028570D02*
X1049860D01*
X152980Y211140D02*
X173490D01*
X218590D02*
X240210D01*
X345840D02*
X370170D01*
X415400D02*
X437080D01*
X542330D02*
X564100D01*
X647710D02*
X668220D01*
X725830D02*
X748990D01*
X842990D02*
X864110D01*
X1029610D02*
X1050620D01*
X152980Y213520D02*
X173490D01*
X217970D02*
X239460D01*
X346590D02*
X370170D01*
X414730D02*
X436330D01*
X543210D02*
X564860D01*
X647710D02*
X668220D01*
X725830D02*
X748390D01*
X843420D02*
X864370D01*
X1030430D02*
X1051380D01*
X152980Y215900D02*
X173490D01*
X217510D02*
X238700D01*
X347340D02*
X370170D01*
X414180D02*
X435580D01*
X543950D02*
X565330D01*
X647710D02*
X668220D01*
X725830D02*
X747900D01*
X843680D02*
X864540D01*
X1031130D02*
X1051860D01*
X152980Y218280D02*
X173490D01*
X217050D02*
X237960D01*
X348080D02*
X370170D01*
X413630D02*
X434840D01*
X544570D02*
X565790D01*
X647710D02*
X668220D01*
X725830D02*
X747410D01*
X843930D02*
X864590D01*
X1031740D02*
X1052320D01*
X152980Y220660D02*
X173490D01*
X216700D02*
X237470D01*
X348570D02*
X370170D01*
X413240D02*
X434350D01*
X545050D02*
X566160D01*
X647710D02*
X668220D01*
X725830D02*
X747130D01*
X844060D02*
X864650D01*
X1032250D02*
X1052690D01*
X152980Y223040D02*
X173490D01*
X216340D02*
X237050D01*
X349000D02*
X370170D01*
X412890D02*
X433920D01*
X545480D02*
X566510D01*
X647710D02*
X668220D01*
X725830D02*
X746900D01*
X844130D02*
X864700D01*
X1032710D02*
X1053040D01*
X152980Y225420D02*
X173490D01*
X216070D02*
X236710D01*
X349340D02*
X370170D01*
X412640D02*
X433580D01*
X545820D02*
X566810D01*
X647710D02*
X668220D01*
X725830D02*
X746710D01*
X844190D02*
X864700D01*
X1032950D02*
X1053340D01*
X152980Y227800D02*
X173490D01*
X215830D02*
X236450D01*
X349530D02*
X370170D01*
X412470D02*
X433390D01*
X546080D02*
X567080D01*
X647710D02*
X668220D01*
X725830D02*
X746640D01*
X844190D02*
X864700D01*
X1033190D02*
X1053600D01*
X152980Y230180D02*
X173490D01*
X215650D02*
X236230D01*
X349640D02*
X370170D01*
X412330D02*
X433280D01*
X546300D02*
X567270D01*
X647710D02*
X668220D01*
X725830D02*
X746570D01*
X844190D02*
X864700D01*
X905620D02*
X1053790D01*
X152980Y232560D02*
X173490D01*
X215560D02*
X236190D01*
X349750D02*
X370170D01*
X412240D02*
X433170D01*
X546430D02*
X567360D01*
X647710D02*
X668220D01*
X725830D02*
X746540D01*
X844190D02*
X864700D01*
X905470D02*
X1053880D01*
X152980Y234940D02*
X173490D01*
X215480D02*
X236190D01*
X349860D02*
X370170D01*
X412160D02*
X433060D01*
X546540D02*
X567440D01*
X647710D02*
X668220D01*
X725830D02*
X746540D01*
X844190D02*
X864700D01*
X905330D02*
X1053960D01*
X152980Y237320D02*
X173490D01*
X215570D02*
X236190D01*
X349740D02*
X370170D01*
X412250D02*
X433180D01*
X546420D02*
X567350D01*
X647650D02*
X668220D01*
X725830D02*
X746540D01*
X844190D02*
X864700D01*
X905410D02*
X1053870D01*
X152980Y239700D02*
X173490D01*
X215650D02*
X236250D01*
X349630D02*
X370170D01*
X412330D02*
X433290D01*
X546280D02*
X567270D01*
X647500D02*
X668220D01*
X725830D02*
X746540D01*
X844190D02*
X864700D01*
X905500D02*
X1053790D01*
X152980Y242080D02*
X173490D01*
X215860D02*
X236470D01*
X349530D02*
X370170D01*
X412480D02*
X433390D01*
X546060D02*
X567050D01*
X647360D02*
X668220D01*
X725830D02*
X746540D01*
X844190D02*
X864700D01*
X905640D02*
X1053640D01*
X152980Y244460D02*
X173490D01*
X216110D02*
X236750D01*
X349300D02*
X370170D01*
X412660D02*
X433610D01*
X545790D02*
X566790D01*
X647150D02*
X668220D01*
X725830D02*
X746540D01*
X844190D02*
X864700D01*
X905810D02*
X925130D01*
X1033200D02*
X1053460D01*
X152980Y246840D02*
X173490D01*
X216400D02*
X237100D01*
X348940D02*
X370170D01*
X412920D02*
X433960D01*
X545440D02*
X566480D01*
X646920D02*
X668220D01*
X725830D02*
X746540D01*
X844190D02*
X864700D01*
X906050D02*
X925470D01*
X1032940D02*
X1053200D01*
X152980Y249220D02*
X173490D01*
X216760D02*
X237540D01*
X348500D02*
X370170D01*
X413280D02*
X434400D01*
X545000D02*
X566120D01*
X646660D02*
X668220D01*
X725830D02*
X746540D01*
X844190D02*
X864700D01*
X906410D02*
X925810D01*
X1032690D02*
X1052840D01*
X152980Y251600D02*
X173490D01*
X217130D02*
X238030D01*
X348010D02*
X370170D01*
X413680D02*
X434910D01*
X544510D02*
X565740D01*
X646260D02*
X668220D01*
X725830D02*
X746540D01*
X844190D02*
X864700D01*
X906800D02*
X926330D01*
X1032180D02*
X1052440D01*
X152980Y253980D02*
X173490D01*
X217590D02*
X238780D01*
X347260D02*
X370170D01*
X414230D02*
X435660D01*
X543890D02*
X565290D01*
X645870D02*
X668220D01*
X725830D02*
X746540D01*
X844190D02*
X864700D01*
X907340D02*
X926860D01*
X1031650D02*
X1051890D01*
X152980Y256360D02*
X173490D01*
X218060D02*
X239530D01*
X346510D02*
X370170D01*
X414800D02*
X436410D01*
X543120D02*
X564790D01*
X645250D02*
X668220D01*
X725830D02*
X746540D01*
X844190D02*
X864700D01*
X907890D02*
X927490D01*
X1030950D02*
X1051320D01*
X152980Y258740D02*
X173490D01*
X218730D02*
X240280D01*
X345760D02*
X370170D01*
X415460D02*
X437150D01*
X542240D02*
X564020D01*
X644540D02*
X668220D01*
X725830D02*
X746540D01*
X844190D02*
X864700D01*
X908470D02*
X928150D01*
X1030200D02*
X1050660D01*
X152980Y261120D02*
X173490D01*
X219390D02*
X241340D01*
X344700D02*
X370170D01*
X416150D02*
X438150D01*
X541370D02*
X563250D01*
X643730D02*
X668220D01*
X725830D02*
X746540D01*
X844190D02*
X864700D01*
X909040D02*
X929030D01*
X1029280D02*
X1049980D01*
X152980Y263500D02*
X173490D01*
X220260D02*
X242470D01*
X343580D02*
X370170D01*
X417010D02*
X439210D01*
X540320D02*
X562400D01*
X642820D02*
X668220D01*
X725830D02*
X746540D01*
X844190D02*
X864700D01*
X909900D02*
X930030D01*
X1028280D02*
X1049220D01*
X152980Y265880D02*
X173490D01*
X221110D02*
X243670D01*
X342380D02*
X370170D01*
X417870D02*
X440350D01*
X539050D02*
X561540D01*
X641810D02*
X668220D01*
X725830D02*
X746540D01*
X844190D02*
X864700D01*
X910750D02*
X931190D01*
X1027120D02*
X1048450D01*
X152980Y268260D02*
X173490D01*
X222100D02*
X245230D01*
X340820D02*
X370170D01*
X418900D02*
X441860D01*
X537540D02*
X560500D01*
X640620D02*
X668220D01*
X725830D02*
X746540D01*
X844190D02*
X864700D01*
X911790D02*
X932430D01*
X1025880D02*
X1047420D01*
X152980Y270640D02*
X173490D01*
X223100D02*
X246790D01*
X339250D02*
X370170D01*
X419970D02*
X443380D01*
X536020D02*
X559430D01*
X639270D02*
X668220D01*
X725830D02*
X746540D01*
X844190D02*
X864700D01*
X912830D02*
X933890D01*
X1024410D02*
X1046350D01*
X152980Y273020D02*
X173490D01*
X224320D02*
X248520D01*
X337520D02*
X370170D01*
X421210D02*
X445040D01*
X534360D02*
X558190D01*
X637670D02*
X668220D01*
X725830D02*
X746540D01*
X844190D02*
X864700D01*
X913970D02*
X935410D01*
X1022900D02*
X1045110D01*
X152980Y275400D02*
X173490D01*
X225580D02*
X250490D01*
X335550D02*
X370170D01*
X422520D02*
X447010D01*
X532390D02*
X556880D01*
X635880D02*
X668220D01*
X725830D02*
X746540D01*
X844190D02*
X864700D01*
X915150D02*
X937310D01*
X1020990D02*
X1043820D01*
X152980Y277780D02*
X173490D01*
X226990D02*
X252490D01*
X333560D02*
X370170D01*
X424040D02*
X448980D01*
X530430D02*
X555360D01*
X633960D02*
X668220D01*
X725830D02*
X746540D01*
X844190D02*
X864700D01*
X916560D02*
X939390D01*
X1018920D02*
X1042410D01*
X152980Y280160D02*
X173490D01*
X228480D02*
X255150D01*
X330890D02*
X370170D01*
X425590D02*
X451520D01*
X527800D02*
X553760D01*
X631450D02*
X668220D01*
X725830D02*
X746540D01*
X844190D02*
X864700D01*
X918040D02*
X941760D01*
X1016540D02*
X1040920D01*
X152980Y282540D02*
X173490D01*
X230180D02*
X257800D01*
X328180D02*
X349430D01*
X350440D02*
X370170D01*
X427170D02*
X454090D01*
X525130D02*
X552060D01*
X628570D02*
X647800D01*
X648490D02*
X668220D01*
X725830D02*
X746540D01*
X844190D02*
X864700D01*
X919620D02*
X944510D01*
X1013910D02*
X1039340D01*
X152980Y284920D02*
X173490D01*
X231980D02*
X261310D01*
X324730D02*
X347800D01*
X350440D02*
X370170D01*
X428990D02*
X457260D01*
X521930D02*
X550210D01*
X625180D02*
X646550D01*
X648490D02*
X668220D01*
X725830D02*
X746540D01*
X844190D02*
X864700D01*
X921400D02*
X947570D01*
X1010930D02*
X1037520D01*
X152980Y287300D02*
X173490D01*
X233840D02*
X265080D01*
X320960D02*
X345950D01*
X350440D02*
X370170D01*
X430930D02*
X461190D01*
X518010D02*
X548280D01*
X621040D02*
X645090D01*
X648490D02*
X668220D01*
X725830D02*
X746540D01*
X844190D02*
X864700D01*
X923310D02*
X951170D01*
X1007330D02*
X1035590D01*
X152980Y289680D02*
X173490D01*
X236110D02*
X270020D01*
X316180D02*
X343940D01*
X350440D02*
X370170D01*
X433180D02*
X466070D01*
X513270D02*
X546030D01*
X615180D02*
X643510D01*
X648490D02*
X668220D01*
X725830D02*
X746540D01*
X844190D02*
X864700D01*
X925560D02*
X955850D01*
X1002650D02*
X1033480D01*
X152980Y292060D02*
X173490D01*
X238510D02*
X276750D01*
X309490D02*
X341800D01*
X350440D02*
X370170D01*
X435680D02*
X473170D01*
X506170D02*
X543610D01*
X604230D02*
X641780D01*
X648490D02*
X668220D01*
X725830D02*
X746540D01*
X844190D02*
X864700D01*
X927890D02*
X962220D01*
X996410D02*
X1031110D01*
X152980Y294440D02*
X173490D01*
X241070D02*
X339540D01*
X350440D02*
X370170D01*
X438380D02*
X540990D01*
X591260D02*
X639730D01*
X648490D02*
X668220D01*
X725830D02*
X746540D01*
X844190D02*
X864700D01*
X930370D02*
X977710D01*
X980990D02*
X1028520D01*
X152980Y296820D02*
X173490D01*
X243900D02*
X336830D01*
X350440D02*
X370170D01*
X441200D02*
X538020D01*
X591260D02*
X637230D01*
X648490D02*
X668220D01*
X725830D02*
X746540D01*
X844190D02*
X864700D01*
X933190D02*
X1025700D01*
X152980Y299200D02*
X173490D01*
X247340D02*
X333760D01*
X350440D02*
X370170D01*
X444700D02*
X534510D01*
X591260D02*
X634540D01*
X648490D02*
X668220D01*
X725830D02*
X746540D01*
X844190D02*
X864700D01*
X936540D02*
X1022350D01*
X152980Y301580D02*
X173490D01*
X251220D02*
X330080D01*
X350440D02*
X370170D01*
X448620D02*
X530590D01*
X591260D02*
X631370D01*
X648490D02*
X668220D01*
X725830D02*
X746540D01*
X844190D02*
X864700D01*
X940140D02*
X1018620D01*
X152980Y303960D02*
X173490D01*
X255450D02*
X326020D01*
X350440D02*
X370170D01*
X453030D02*
X526180D01*
X591260D02*
X627630D01*
X648490D02*
X668220D01*
X725830D02*
X746540D01*
X844190D02*
X864700D01*
X944290D02*
X1014410D01*
X152980Y306340D02*
X173490D01*
X260520D02*
X321370D01*
X350440D02*
X370170D01*
X458040D02*
X521170D01*
X591260D02*
X622800D01*
X648490D02*
X668220D01*
X725830D02*
X746540D01*
X844190D02*
X864700D01*
X949090D02*
X1009760D01*
X152980Y308720D02*
X173490D01*
X266930D02*
X315210D01*
X350440D02*
X370170D01*
X465000D02*
X514200D01*
X591260D02*
X616380D01*
X648490D02*
X668220D01*
X725830D02*
X746540D01*
X844190D02*
X864700D01*
X955770D02*
X1002920D01*
X277320Y311100D02*
X305330D01*
X475020D02*
X504230D01*
X591260D02*
X606300D01*
X965350D02*
X993340D01*
X154540Y346800D02*
X171500D01*
X152070Y349180D02*
X174010D01*
X150220Y351560D02*
X175870D01*
X149000Y353940D02*
X177080D01*
X148320Y356320D02*
X177760D01*
X148000Y358700D02*
X178090D01*
X148120Y361080D02*
X177930D01*
X148630Y363460D02*
X177360D01*
X149560Y365840D02*
X176350D01*
X151230Y368220D02*
X174750D01*
X153610Y370600D02*
X172350D01*
X158430Y372980D02*
X167650D01*
X2173210Y12682270D02*
X2165980Y12682080D01*
X2159150Y12681290*
X2152700Y12680120*
X2146840Y12678560*
X2141180Y12676410*
X2136100Y12673870*
X2131610Y12670750*
X2127310Y12667230*
X2123600Y12663330*
X2120280Y12659030*
X2117540Y12654150*
X2115400Y12648870*
X2113640Y12643010*
X2112470Y12636760*
X2111690Y12630120*
X2111290Y12623090*
Y12528560*
X2131020*
Y12552390*
X2132970Y12549460*
X2134930Y12546720*
X2137270Y12544190*
X2139610Y12541650*
X2142350Y12539500*
X2145280Y12537350*
X2148210Y12535590*
X2151530Y12533830*
X2155040Y12532270*
X2158560Y12530900*
X2162470Y12529730*
X2166370Y12528760*
X2170470Y12527970*
X2174580Y12527580*
X2179070Y12527190*
X2183560*
X2189810Y12527390*
X2195670Y12527780*
X2201330Y12528760*
X2206610Y12530120*
X2211490Y12531880*
X2215980Y12534030*
X2220280Y12536370*
X2224190Y12539300*
X2227700Y12542430*
X2230830Y12545940*
X2233360Y12549460*
X2235510Y12553360*
X2237080Y12557470*
X2238440Y12561960*
X2239030Y12566650*
X2239220Y12571530*
X2239030Y12576220*
X2238440Y12580710*
X2237270Y12585010*
X2235710Y12588910*
X2233760Y12592820*
X2231410Y12596330*
X2228480Y12599650*
X2225160Y12602780*
X2221450Y12605510*
X2217150Y12608050*
X2212270Y12610010*
X2207000Y12611760*
X2201140Y12612940*
X2194690Y12613910*
X2187860Y12614500*
X2180440Y12614690*
X2132000*
Y12624070*
X2132190Y12628760*
X2132580Y12633250*
X2133560Y12637350*
X2134730Y12641260*
X2136290Y12644970*
X2138250Y12648290*
X2140400Y12651220*
X2142940Y12653950*
X2145860Y12656490*
X2149190Y12658440*
X2152700Y12660200*
X2156610Y12661760*
X2160710Y12662740*
X2165200Y12663720*
X2170080Y12664110*
X2175160Y12664300*
X2182390Y12663910*
X2189420Y12663130*
X2196260Y12661570*
X2203090Y12659420*
X2209540Y12656880*
X2215400Y12653760*
X2220860Y12650240*
X2225940Y12646330*
X2235320Y12661760*
X2229070Y12666260*
X2222430Y12670360*
X2215200Y12673870*
X2207390Y12676800*
X2199190Y12679150*
X2190790Y12680900*
X2182000Y12681880*
X2173210Y12682270*
X2180440Y12543400D02*
X2176140D01*
X2172040Y12543790*
X2168130Y12544380*
X2164220Y12545360*
X2160510Y12546530*
X2157000Y12547900*
X2153680Y12549460*
X2150550Y12551220*
X2147430Y12553360*
X2144690Y12555710*
X2142150Y12558250*
X2139610Y12560980*
X2137470Y12564110*
X2135320Y12567230*
X2133560Y12570750*
X2132000Y12574460*
Y12599260*
X2179850*
X2184540*
X2189030Y12598870*
X2193130Y12598290*
X2197040Y12597700*
X2200550Y12596720*
X2203680Y12595550*
X2206610Y12594190*
X2209150Y12592430*
X2211490Y12590670*
X2213440Y12588720*
X2215200Y12586370*
X2216570Y12584030*
X2217540Y12581290*
X2218330Y12578360*
X2218910Y12575440*
Y12572110*
Y12568790*
X2218330Y12565670*
X2217540Y12562740*
X2216370Y12560200*
X2215010Y12557660*
X2213250Y12555120*
X2211290Y12552970*
X2208760Y12551020*
X2206220Y12549260*
X2203290Y12547700*
X2200160Y12546330*
X2196650Y12545160*
X2192940Y12544380*
X2189030Y12543790*
X2184930Y12543400*
X2180440*
X2055440Y12743790D02*
X2034930D01*
Y12528560*
X2055440*
Y12743790*
X1977510D02*
X1957000D01*
Y12528560*
X1977510*
Y12743790*
X1766760Y12598480D02*
X1894300D01*
X1893720Y12592620*
X1892540Y12587150*
X1890980Y12581880*
X1888830Y12577000*
X1886290Y12572310*
X1883360Y12567820*
X1880040Y12563720*
X1876140Y12560010*
X1871840Y12556490*
X1867350Y12553560*
X1862470Y12551020*
X1857390Y12549070*
X1851920Y12547510*
X1846450Y12546330*
X1840400Y12545550*
X1834340Y12545360*
X1827310Y12545750*
X1820670Y12546720*
X1814220Y12548290*
X1808170Y12550440*
X1802510Y12553360*
X1797040Y12556690*
X1792150Y12560790*
X1787660Y12565470*
X1775940Y12552000*
X1781410Y12546330*
X1787470Y12541260*
X1794110Y12536960*
X1801330Y12533440*
X1805240Y12531880*
X1809150Y12530710*
X1813250Y12529540*
X1817350Y12528760*
X1821650Y12527970*
X1825940Y12527580*
X1830440Y12527190*
X1834930*
X1840590*
X1846260Y12527780*
X1851720Y12528560*
X1857000Y12529540*
X1862080Y12530900*
X1867150Y12532660*
X1871840Y12534810*
X1876530Y12537150*
X1880830Y12539690*
X1885120Y12542620*
X1889030Y12545750*
X1892540Y12549070*
X1896060Y12552580*
X1899190Y12556490*
X1902110Y12560400*
X1904850Y12564890*
X1907190Y12569380*
X1909150Y12573870*
X1910900Y12578760*
X1912470Y12583640*
X1913440Y12588720*
X1914220Y12593990*
X1914810Y12599260*
X1915010Y12604930*
X1914810Y12610400*
X1914420Y12615670*
X1913640Y12620940*
X1912470Y12626020*
X1911100Y12630900*
X1909540Y12635790*
X1907580Y12640280*
X1905240Y12644770*
X1902700Y12649070*
X1899970Y12653170*
X1896840Y12657080*
X1893720Y12660590*
X1890200Y12663910*
X1886490Y12667040*
X1882580Y12669770*
X1878480Y12672310*
X1874190Y12674650*
X1869890Y12676800*
X1865200Y12678360*
X1860510Y12679730*
X1855630Y12680900*
X1850750Y12681690*
X1845670Y12682080*
X1840400Y12682270*
X1835120Y12682080*
X1830040Y12681690*
X1825160Y12680900*
X1820280Y12679730*
X1815590Y12678360*
X1811100Y12676800*
X1806610Y12674650*
X1802310Y12672310*
X1798400Y12669770*
X1794500Y12667040*
X1790790Y12663910*
X1787470Y12660590*
X1784150Y12657080*
X1781220Y12653360*
X1778480Y12649260*
X1775940Y12644970*
X1773790Y12640470*
X1771840Y12635980*
X1770080Y12631100*
X1768910Y12626220*
X1767740Y12621140*
X1766960Y12615860*
X1766570Y12610400*
X1766370Y12604930*
X1766760Y12598480*
X1840400Y12664500D02*
X1845860Y12664300D01*
X1850940Y12663720*
X1856020Y12662540*
X1860710Y12660980*
X1865200Y12659030*
X1869500Y12656690*
X1873600Y12653760*
X1877310Y12650440*
X1880830Y12646920*
X1883950Y12643010*
X1886690Y12638720*
X1889030Y12634220*
X1890980Y12629540*
X1892540Y12624650*
X1893720Y12619380*
X1894300Y12613910*
X1786100*
X1786880Y12619380*
X1788050Y12624650*
X1789420Y12629540*
X1791370Y12634220*
X1793720Y12638720*
X1796450Y12643010*
X1799580Y12646920*
X1803090Y12650440*
X1807000Y12653760*
X1811100Y12656690*
X1815400Y12659030*
X1819890Y12660980*
X1824770Y12662540*
X1829650Y12663720*
X1834930Y12664300*
X1840400Y12664500*
X1646650Y12682270D02*
X1639610Y12682080D01*
X1632970Y12681290*
X1626720Y12679930*
X1620860Y12678170*
X1615400Y12675830*
X1610120Y12672900*
X1605440Y12669580*
X1600940Y12665670*
X1597040Y12661180*
X1593520Y12656290*
X1590590Y12651020*
X1588250Y12645160*
X1586290Y12638720*
X1585120Y12632080*
X1584340Y12624650*
X1583950Y12617040*
Y12528560*
X1604650*
Y12614890*
X1604850Y12620750*
X1605240Y12626220*
X1606220Y12631290*
X1607580Y12635980*
X1609150Y12640280*
X1611290Y12644190*
X1613640Y12647900*
X1616570Y12651220*
X1619690Y12654150*
X1623010Y12656690*
X1626920Y12658830*
X1630830Y12660590*
X1635320Y12661960*
X1640010Y12662940*
X1645080Y12663520*
X1650360Y12663720*
X1656410Y12663520*
X1662080Y12662740*
X1667540Y12661570*
X1672430Y12660010*
X1677110Y12658050*
X1681610Y12655510*
X1685710Y12652390*
X1689420Y12649070*
X1692740Y12645160*
X1695670Y12641060*
X1698210Y12636570*
X1700160Y12631690*
X1701720Y12626410*
X1702900Y12620750*
X1703480Y12614890*
X1703870Y12608640*
Y12528560*
X1724380*
Y12681100*
X1704650*
Y12652970*
X1702510Y12656290*
X1699970Y12659610*
X1697430Y12662540*
X1694690Y12665280*
X1691570Y12668010*
X1688440Y12670360*
X1684930Y12672510*
X1681220Y12674650*
X1677510Y12676410*
X1673600Y12677970*
X1669500Y12679340*
X1665200Y12680320*
X1660710Y12681100*
X1656220Y12681690*
X1651530Y12682080*
X1646650Y12682270*
X1411290Y12527190D02*
X1420470Y12527390D01*
X1429460Y12528360*
X1438250Y12530120*
X1446840Y12532470*
X1450940Y12533830*
X1454850Y12535400*
X1458360Y12536960*
X1461880Y12538520*
X1465010Y12540280*
X1468130Y12542040*
X1470860Y12543990*
X1473210Y12545940*
X1464030Y12562150*
X1458950Y12558640*
X1453290Y12555320*
X1446840Y12552390*
X1440010Y12549850*
X1432580Y12547700*
X1425160Y12546330*
X1417540Y12545360*
X1409730Y12545160*
X1404650*
X1399970Y12545550*
X1395670Y12545940*
X1391570Y12546720*
X1387860Y12547700*
X1384540Y12548680*
X1381610Y12550040*
X1378870Y12551610*
X1376530Y12553360*
X1374580Y12555120*
X1372820Y12557270*
X1371450Y12559420*
X1370280Y12561760*
X1369500Y12564500*
X1369110Y12567040*
X1368910Y12569970*
X1369300Y12574070*
X1370280Y12577580*
X1372040Y12580510*
X1374380Y12583250*
X1377310Y12585400*
X1380630Y12587350*
X1384340Y12589110*
X1388250Y12590470*
X1392940Y12591650*
X1398010Y12592820*
X1404070Y12593990*
X1410710Y12595160*
X1415200Y12596140*
X1419500Y12596920*
X1423600Y12597900*
X1427310Y12598680*
X1431020Y12599650*
X1434340Y12600630*
X1437470Y12601410*
X1440590Y12602390*
X1445860Y12604540*
X1450940Y12607270*
X1455630Y12610590*
X1459730Y12614690*
X1461690Y12617040*
X1463250Y12619380*
X1464610Y12622110*
X1465790Y12625040*
X1466570Y12628170*
X1467350Y12631490*
X1467740Y12635010*
Y12638720*
X1467540Y12643400*
X1466760Y12647900*
X1465590Y12652190*
X1463830Y12656100*
X1461490Y12660010*
X1458760Y12663520*
X1455630Y12666840*
X1451720Y12670160*
X1447620Y12672900*
X1443130Y12675440*
X1438050Y12677580*
X1432780Y12679150*
X1426920Y12680510*
X1420860Y12681490*
X1414420Y12682080*
X1407390Y12682270*
X1399970Y12682080*
X1392740Y12681290*
X1385320Y12680120*
X1377900Y12678360*
X1370860Y12676220*
X1364420Y12673870*
X1358560Y12671140*
X1353480Y12668010*
X1362470Y12651610*
X1367350Y12654540*
X1372430Y12657270*
X1377700Y12659420*
X1383170Y12661370*
X1388830Y12662740*
X1394890Y12663720*
X1400940Y12664300*
X1407390Y12664500*
X1412270*
X1416760Y12664110*
X1420860Y12663520*
X1424770Y12662740*
X1428290Y12661760*
X1431610Y12660590*
X1434540Y12659220*
X1437080Y12657660*
X1439420Y12655710*
X1441570Y12653950*
X1443330Y12651800*
X1444690Y12649650*
X1445860Y12647110*
X1446650Y12644770*
X1447040Y12642040*
X1447230Y12639300*
X1446840Y12635200*
X1445670Y12631490*
X1443910Y12628170*
X1441570Y12625440*
X1438440Y12622900*
X1435120Y12620940*
X1431410Y12619190*
X1427510Y12617820*
X1425160Y12617040*
X1422820Y12616450*
X1420280Y12615860*
X1417350Y12615280*
X1414420Y12614500*
X1411290Y12613910*
X1407780Y12613330*
X1404260Y12612740*
X1399770Y12611760*
X1395670Y12610980*
X1391570Y12610010*
X1387860Y12609220*
X1384340Y12608250*
X1381020Y12607470*
X1377900Y12606490*
X1374970Y12605710*
X1369690Y12603560*
X1364810Y12601020*
X1360120Y12597700*
X1356020Y12593790*
X1354260Y12591650*
X1352700Y12589110*
X1351330Y12586570*
X1350160Y12583830*
X1349380Y12580710*
X1348790Y12577580*
X1348400Y12574260*
X1348210Y12570550*
X1348600Y12565670*
X1349380Y12561180*
X1350550Y12556690*
X1352510Y12552580*
X1354850Y12548870*
X1357580Y12545160*
X1361100Y12541840*
X1365010Y12538910*
X1369300Y12535980*
X1374190Y12533640*
X1379260Y12531690*
X1384930Y12530120*
X1390790Y12528760*
X1397230Y12527780*
X1404070Y12527190*
X1411290*
X1182190Y12681100D02*
X1258360Y12510200D01*
X1260710Y12505120*
X1263250Y12500240*
X1265790Y12495940*
X1268330Y12491840*
X1271060Y12488330*
X1273990Y12485010*
X1276920Y12482270*
X1279850Y12479730*
X1282970Y12477780*
X1286290Y12475830*
X1289610Y12474260*
X1293330Y12473090*
X1297040Y12472110*
X1300940Y12471330*
X1305040Y12470940*
X1309150Y12470750*
X1314610Y12471140*
X1319890Y12471720*
X1324770Y12472700*
X1329650Y12474260*
X1334340Y12476220*
X1338640Y12478760*
X1342540Y12481490*
X1346260Y12484810*
X1336690Y12500040*
X1333760Y12497310*
X1330630Y12494970*
X1327310Y12493010*
X1323990Y12491450*
X1320470Y12490080*
X1316760Y12489300*
X1312860Y12488720*
X1308950Y12488520*
X1303870Y12488910*
X1299190Y12489890*
X1294890Y12491840*
X1290980Y12494380*
X1289220Y12495940*
X1287470Y12497700*
X1285710Y12499850*
X1283950Y12502190*
X1282190Y12504730*
X1280440Y12507660*
X1278870Y12510790*
X1277310Y12514110*
X1270670Y12528760*
X1338830Y12681100*
X1317350*
X1259930Y12551410*
X1202510Y12681100*
X1182190*
X1075360Y12682270D02*
X1068330Y12682080D01*
X1061690Y12681290*
X1055440Y12679930*
X1049580Y12678170*
X1044110Y12675830*
X1038830Y12672900*
X1034150Y12669580*
X1029650Y12665670*
X1025750Y12661180*
X1022230Y12656290*
X1019300Y12651020*
X1016960Y12645160*
X1015010Y12638720*
X1013830Y12632080*
X1013050Y12624650*
X1012660Y12617040*
Y12528560*
X1033360*
Y12614890*
X1033560Y12620750*
X1033950Y12626220*
X1034930Y12631290*
X1036290Y12635980*
X1037860Y12640280*
X1040010Y12644190*
X1042350Y12647900*
X1045280Y12651220*
X1048400Y12654150*
X1051720Y12656690*
X1055630Y12658830*
X1059540Y12660590*
X1064030Y12661960*
X1068720Y12662940*
X1073790Y12663520*
X1079070Y12663720*
X1085120Y12663520*
X1090790Y12662740*
X1096260Y12661570*
X1101140Y12660010*
X1105830Y12658050*
X1110320Y12655510*
X1114420Y12652390*
X1118130Y12649070*
X1121450Y12645160*
X1124380Y12641060*
X1126920Y12636570*
X1128870Y12631690*
X1130440Y12626410*
X1131610Y12620750*
X1132190Y12614890*
X1132580Y12608640*
Y12528560*
X1153090*
Y12681100*
X1133360*
Y12652970*
X1131220Y12656290*
X1128680Y12659610*
X1126140Y12662540*
X1123400Y12665280*
X1120280Y12668010*
X1117150Y12670360*
X1113640Y12672510*
X1109930Y12674650*
X1106220Y12676410*
X1102310Y12677970*
X1098210Y12679340*
X1093910Y12680320*
X1089420Y12681100*
X1084930Y12681690*
X1080240Y12682080*
X1075360Y12682270*
X876530Y12537740D02*
X879460Y12535400D01*
X882970Y12533250*
X886690Y12531290*
X890790Y12529930*
X895080Y12528560*
X899580Y12527780*
X904070Y12527190*
X908560*
X913830*
X918720Y12527780*
X923400Y12528760*
X927700Y12529930*
X931610Y12531690*
X935320Y12533640*
X938640Y12535980*
X941760Y12538720*
X944500Y12541840*
X946840Y12545160*
X948790Y12548680*
X950360Y12552780*
X951720Y12556880*
X952510Y12561570*
X953090Y12566260*
X953290Y12571530*
Y12663720*
X980630*
Y12681100*
X953290*
Y12714500*
X932780*
Y12681100*
X886290*
Y12663720*
X932780*
Y12572700*
X932580Y12569380*
X932390Y12566260*
X931800Y12563330*
X931020Y12560590*
X930040Y12558050*
X928870Y12555900*
X927510Y12553760*
X925940Y12551800*
X924190Y12550240*
X922040Y12548680*
X919890Y12547510*
X917540Y12546530*
X915010Y12545750*
X912270Y12545160*
X909340Y12544970*
X906410Y12544770*
X903090Y12544970*
X899970Y12545360*
X897040Y12545940*
X893910Y12546720*
X891180Y12547900*
X888440Y12549260*
X885900Y12550830*
X883760Y12552580*
X876530Y12537740*
X761290Y12682270D02*
X754260Y12682080D01*
X747620Y12681290*
X741370Y12679930*
X735510Y12678170*
X730040Y12675830*
X724770Y12672900*
X720080Y12669580*
X715590Y12665670*
X711690Y12661180*
X708170Y12656290*
X705240Y12651020*
X702900Y12645160*
X700940Y12638720*
X699770Y12632080*
X698990Y12624650*
X698600Y12617040*
Y12528560*
X719300*
Y12614890*
X719500Y12620750*
X719890Y12626220*
X720860Y12631290*
X722230Y12635980*
X723790Y12640280*
X725940Y12644190*
X728290Y12647900*
X731220Y12651220*
X734340Y12654150*
X737660Y12656690*
X741570Y12658830*
X745470Y12660590*
X749970Y12661960*
X754650Y12662940*
X759730Y12663520*
X765010Y12663720*
X771060Y12663520*
X776720Y12662740*
X782190Y12661570*
X787080Y12660010*
X791760Y12658050*
X796260Y12655510*
X800360Y12652390*
X804070Y12649070*
X807390Y12645160*
X810320Y12641060*
X812860Y12636570*
X814810Y12631690*
X816370Y12626410*
X817540Y12620750*
X818130Y12614890*
X818520Y12608640*
Y12528560*
X839030*
Y12743790*
X818520*
Y12654340*
X816180Y12657660*
X813830Y12660790*
X811290Y12663520*
X808360Y12666260*
X805440Y12668790*
X802310Y12670940*
X798790Y12673090*
X795280Y12675040*
X791370Y12676610*
X787470Y12678170*
X783560Y12679340*
X779260Y12680510*
X774970Y12681290*
X770670Y12681880*
X765980Y12682080*
X761290Y12682270*
X509930Y12598480D02*
X637470D01*
X636880Y12592620*
X635710Y12587150*
X634150Y12581880*
X632000Y12577000*
X629460Y12572310*
X626530Y12567820*
X623210Y12563720*
X619300Y12560010*
X615010Y12556490*
X610510Y12553560*
X605630Y12551020*
X600550Y12549070*
X595080Y12547510*
X589610Y12546330*
X583560Y12545550*
X577510Y12545360*
X570470Y12545750*
X563830Y12546720*
X557390Y12548290*
X551330Y12550440*
X545670Y12553360*
X540200Y12556690*
X535320Y12560790*
X530830Y12565470*
X519110Y12552000*
X524580Y12546330*
X530630Y12541260*
X537270Y12536960*
X544500Y12533440*
X548400Y12531880*
X552310Y12530710*
X556410Y12529540*
X560510Y12528760*
X564810Y12527970*
X569110Y12527580*
X573600Y12527190*
X578090*
X583760*
X589420Y12527780*
X594890Y12528560*
X600160Y12529540*
X605240Y12530900*
X610320Y12532660*
X615010Y12534810*
X619690Y12537150*
X623990Y12539690*
X628290Y12542620*
X632190Y12545750*
X635710Y12549070*
X639220Y12552580*
X642350Y12556490*
X645280Y12560400*
X648010Y12564890*
X650360Y12569380*
X652310Y12573870*
X654070Y12578760*
X655630Y12583640*
X656610Y12588720*
X657390Y12593990*
X657970Y12599260*
X658170Y12604930*
X657970Y12610400*
X657580Y12615670*
X656800Y12620940*
X655630Y12626020*
X654260Y12630900*
X652700Y12635790*
X650750Y12640280*
X648400Y12644770*
X645860Y12649070*
X643130Y12653170*
X640010Y12657080*
X636880Y12660590*
X633360Y12663910*
X629650Y12667040*
X625750Y12669770*
X621650Y12672310*
X617350Y12674650*
X613050Y12676800*
X608360Y12678360*
X603680Y12679730*
X598790Y12680900*
X593910Y12681690*
X588830Y12682080*
X583560Y12682270*
X578290Y12682080*
X573210Y12681690*
X568330Y12680900*
X563440Y12679730*
X558760Y12678360*
X554260Y12676800*
X549770Y12674650*
X545470Y12672310*
X541570Y12669770*
X537660Y12667040*
X533950Y12663910*
X530630Y12660590*
X527310Y12657080*
X524380Y12653360*
X521650Y12649260*
X519110Y12644970*
X516960Y12640470*
X515010Y12635980*
X513250Y12631100*
X512080Y12626220*
X510900Y12621140*
X510120Y12615860*
X509730Y12610400*
X509540Y12604930*
X509930Y12598480*
X583560Y12664500D02*
X589030Y12664300D01*
X594110Y12663720*
X599190Y12662540*
X603870Y12660980*
X608360Y12659030*
X612660Y12656690*
X616760Y12653760*
X620470Y12650440*
X623990Y12646920*
X627110Y12643010*
X629850Y12638720*
X632190Y12634220*
X634150Y12629540*
X635710Y12624650*
X636880Y12619380*
X637470Y12613910*
X529260*
X530040Y12619380*
X531220Y12624650*
X532580Y12629540*
X534540Y12634220*
X536880Y12638720*
X539610Y12643010*
X542740Y12646920*
X546260Y12650440*
X550160Y12653760*
X554260Y12656690*
X558560Y12659030*
X563050Y12660980*
X567940Y12662540*
X572820Y12663720*
X578090Y12664300*
X583560Y12664500*
X426720Y12527190D02*
X435900Y12527390D01*
X444890Y12528360*
X453680Y12530120*
X462270Y12532470*
X466370Y12533830*
X470280Y12535400*
X473790Y12536960*
X477310Y12538520*
X480440Y12540280*
X483560Y12542040*
X486290Y12543990*
X488640Y12545940*
X479460Y12562150*
X474380Y12558640*
X468720Y12555320*
X462270Y12552390*
X455440Y12549850*
X448010Y12547700*
X440590Y12546330*
X432970Y12545360*
X425160Y12545160*
X420080*
X415400Y12545550*
X411100Y12545940*
X407000Y12546720*
X403290Y12547700*
X399970Y12548680*
X397040Y12550040*
X394300Y12551610*
X391960Y12553360*
X390010Y12555120*
X388250Y12557270*
X386880Y12559420*
X385710Y12561760*
X384930Y12564500*
X384540Y12567040*
X384340Y12569970*
X384730Y12574070*
X385710Y12577580*
X387470Y12580510*
X389810Y12583250*
X392740Y12585400*
X396060Y12587350*
X399770Y12589110*
X403680Y12590470*
X408360Y12591650*
X413440Y12592820*
X419500Y12593990*
X426140Y12595160*
X430630Y12596140*
X434930Y12596920*
X439030Y12597900*
X442740Y12598680*
X446450Y12599650*
X449770Y12600630*
X452900Y12601410*
X456020Y12602390*
X461290Y12604540*
X466370Y12607270*
X471060Y12610590*
X475160Y12614690*
X477110Y12617040*
X478680Y12619380*
X480040Y12622110*
X481220Y12625040*
X482000Y12628170*
X482780Y12631490*
X483170Y12635010*
Y12638720*
X482970Y12643400*
X482190Y12647900*
X481020Y12652190*
X479260Y12656100*
X476920Y12660010*
X474190Y12663520*
X471060Y12666840*
X467150Y12670160*
X463050Y12672900*
X458560Y12675440*
X453480Y12677580*
X448210Y12679150*
X442350Y12680510*
X436290Y12681490*
X429850Y12682080*
X422820Y12682270*
X415400Y12682080*
X408170Y12681290*
X400750Y12680120*
X393330Y12678360*
X386290Y12676220*
X379850Y12673870*
X373990Y12671140*
X368910Y12668010*
X377900Y12651610*
X382780Y12654540*
X387860Y12657270*
X393130Y12659420*
X398600Y12661370*
X404260Y12662740*
X410320Y12663720*
X416370Y12664300*
X422820Y12664500*
X427700*
X432190Y12664110*
X436290Y12663520*
X440200Y12662740*
X443720Y12661760*
X447040Y12660590*
X449970Y12659220*
X452510Y12657660*
X454850Y12655710*
X457000Y12653950*
X458760Y12651800*
X460120Y12649650*
X461290Y12647110*
X462080Y12644770*
X462470Y12642040*
X462660Y12639300*
X462270Y12635200*
X461100Y12631490*
X459340Y12628170*
X457000Y12625440*
X453870Y12622900*
X450550Y12620940*
X446840Y12619190*
X442940Y12617820*
X440590Y12617040*
X438250Y12616450*
X435710Y12615860*
X432780Y12615280*
X429850Y12614500*
X426720Y12613910*
X423210Y12613330*
X419690Y12612740*
X415200Y12611760*
X411100Y12610980*
X407000Y12610010*
X403290Y12609220*
X399770Y12608250*
X396450Y12607470*
X393330Y12606490*
X390400Y12605710*
X385120Y12603560*
X380240Y12601020*
X375550Y12597700*
X371450Y12593790*
X369690Y12591650*
X368130Y12589110*
X366760Y12586570*
X365590Y12583830*
X364810Y12580710*
X364220Y12577580*
X363830Y12574260*
X363640Y12570550*
X364030Y12565670*
X364810Y12561180*
X365980Y12556690*
X367940Y12552580*
X370280Y12548870*
X373010Y12545160*
X376530Y12541840*
X380440Y12538910*
X384730Y12535980*
X389610Y12533640*
X394690Y12531690*
X400360Y12530120*
X406220Y12528760*
X412660Y12527780*
X419500Y12527190*
X426720*
X325750Y12681100D02*
X305240D01*
Y12528560*
X325750*
Y12681100*
X315400Y12714500D02*
X318330Y12714690D01*
X321260Y12715470*
X323790Y12716840*
X325940Y12718790*
X327900Y12721140*
X329260Y12723680*
X330040Y12726410*
X330440Y12729340*
X330040Y12732080*
X329260Y12734610*
X327900Y12737150*
X325940Y12739500*
X323790Y12741260*
X321260Y12742620*
X318330Y12743400*
X315400Y12743790*
X312270Y12743400*
X309340Y12742620*
X306800Y12741450*
X304650Y12739500*
X302700Y12737350*
X301330Y12735010*
X300550Y12732270*
X300160Y12729540*
X300550Y12726410*
X301330Y12723680*
X302700Y12721140*
X304650Y12718790*
X306800Y12716840*
X309340Y12715470*
X312270Y12714690*
X315400Y12714500*
X207000Y12527190D02*
X216180Y12527390D01*
X225160Y12528360*
X233950Y12530120*
X242540Y12532470*
X246650Y12533830*
X250550Y12535400*
X254070Y12536960*
X257580Y12538520*
X260710Y12540280*
X263830Y12542040*
X266570Y12543990*
X268910Y12545940*
X259730Y12562150*
X254650Y12558640*
X248990Y12555320*
X242540Y12552390*
X235710Y12549850*
X228290Y12547700*
X220860Y12546330*
X213250Y12545360*
X205440Y12545160*
X200360*
X195670Y12545550*
X191370Y12545940*
X187270Y12546720*
X183560Y12547700*
X180240Y12548680*
X177310Y12550040*
X174580Y12551610*
X172230Y12553360*
X170280Y12555120*
X168520Y12557270*
X167150Y12559420*
X165980Y12561760*
X165200Y12564500*
X164810Y12567040*
X164610Y12569970*
X165010Y12574070*
X165980Y12577580*
X167740Y12580510*
X170080Y12583250*
X173010Y12585400*
X176330Y12587350*
X180040Y12589110*
X183950Y12590470*
X188640Y12591650*
X193720Y12592820*
X199770Y12593990*
X206410Y12595160*
X210900Y12596140*
X215200Y12596920*
X219300Y12597900*
X223010Y12598680*
X226720Y12599650*
X230040Y12600630*
X233170Y12601410*
X236290Y12602390*
X241570Y12604540*
X246650Y12607270*
X251330Y12610590*
X255440Y12614690*
X257390Y12617040*
X258950Y12619380*
X260320Y12622110*
X261490Y12625040*
X262270Y12628170*
X263050Y12631490*
X263440Y12635010*
Y12638720*
X263250Y12643400*
X262470Y12647900*
X261290Y12652190*
X259540Y12656100*
X257190Y12660010*
X254460Y12663520*
X251330Y12666840*
X247430Y12670160*
X243330Y12672900*
X238830Y12675440*
X233760Y12677580*
X228480Y12679150*
X222620Y12680510*
X216570Y12681490*
X210120Y12682080*
X203090Y12682270*
X195670Y12682080*
X188440Y12681290*
X181020Y12680120*
X173600Y12678360*
X166570Y12676220*
X160120Y12673870*
X154260Y12671140*
X149190Y12668010*
X158170Y12651610*
X163050Y12654540*
X168130Y12657270*
X173400Y12659420*
X178870Y12661370*
X184540Y12662740*
X190590Y12663720*
X196650Y12664300*
X203090Y12664500*
X207970*
X212470Y12664110*
X216570Y12663520*
X220470Y12662740*
X223990Y12661760*
X227310Y12660590*
X230240Y12659220*
X232780Y12657660*
X235120Y12655710*
X237270Y12653950*
X239030Y12651800*
X240400Y12649650*
X241570Y12647110*
X242350Y12644770*
X242740Y12642040*
X242940Y12639300*
X242540Y12635200*
X241370Y12631490*
X239610Y12628170*
X237270Y12625440*
X234150Y12622900*
X230830Y12620940*
X227110Y12619190*
X223210Y12617820*
X220860Y12617040*
X218520Y12616450*
X215980Y12615860*
X213050Y12615280*
X210120Y12614500*
X207000Y12613910*
X203480Y12613330*
X199970Y12612740*
X195470Y12611760*
X191370Y12610980*
X187270Y12610010*
X183560Y12609220*
X180040Y12608250*
X176720Y12607470*
X173600Y12606490*
X170670Y12605710*
X165400Y12603560*
X160510Y12601020*
X155830Y12597700*
X151720Y12593790*
X149970Y12591650*
X148400Y12589110*
X147040Y12586570*
X145860Y12583830*
X145080Y12580710*
X144500Y12577580*
X144110Y12574260*
X143910Y12570550*
X144300Y12565670*
X145080Y12561180*
X146260Y12556690*
X148210Y12552580*
X150550Y12548870*
X153290Y12545160*
X156800Y12541840*
X160710Y12538910*
X165010Y12535980*
X169890Y12533640*
X174970Y12531690*
X180630Y12530120*
X186490Y12528760*
X192940Y12527780*
X199770Y12527190*
X207000*
X1299290Y12471660D02*
X1319340D01*
X1290310Y12474040D02*
X1328960D01*
X1285290Y12476420D02*
X1334680D01*
X1281340Y12478800D02*
X1338700D01*
X1278180Y12481180D02*
X1342100D01*
X1275540Y12483560D02*
X1344860D01*
X1273170Y12485940D02*
X1345550D01*
X1271060Y12488320D02*
X1344050D01*
X1269220Y12490700D02*
X1297400D01*
X1322060D02*
X1342560D01*
X1267560Y12493080D02*
X1292980D01*
X1327430D02*
X1341060D01*
X1266090Y12495460D02*
X1289760D01*
X1331290D02*
X1339570D01*
X1264670Y12497840D02*
X1287360D01*
X1334330D02*
X1338070D01*
X1263250Y12500220D02*
X1285430D01*
X1262020Y12502600D02*
X1283670D01*
X1260780Y12504980D02*
X1282040D01*
X1259670Y12507360D02*
X1280620D01*
X1258570Y12509740D02*
X1279400D01*
X1257500Y12512120D02*
X1278250D01*
X1256440Y12514500D02*
X1277130D01*
X1255380Y12516880D02*
X1276050D01*
X1254320Y12519260D02*
X1274980D01*
X1253260Y12521640D02*
X1273900D01*
X1252200Y12524020D02*
X1272820D01*
X1251140Y12526400D02*
X1271740D01*
X186490Y12528780D02*
X227260D01*
X305240D02*
X325750D01*
X406220D02*
X446990D01*
X560510D02*
X596070D01*
X698600D02*
X719300D01*
X818520D02*
X839030D01*
X894390D02*
X923470D01*
X1012660D02*
X1033360D01*
X1132580D02*
X1153090D01*
X1250080D02*
X1270680D01*
X1390790D02*
X1431560D01*
X1583950D02*
X1604650D01*
X1703870D02*
X1724380D01*
X1817350D02*
X1852910D01*
X1957000D02*
X1977510D01*
X2034930D02*
X2055440D01*
X2111290D02*
X2131020D01*
X2166370D02*
X2201410D01*
X176880Y12531160D02*
X237750D01*
X305240D02*
X325750D01*
X396600D02*
X457480D01*
X550810D02*
X605990D01*
X698600D02*
X719300D01*
X818520D02*
X839030D01*
X887080D02*
X930430D01*
X1012660D02*
X1033360D01*
X1132580D02*
X1153090D01*
X1249020D02*
X1271740D01*
X1381170D02*
X1442050D01*
X1583950D02*
X1604650D01*
X1703870D02*
X1724380D01*
X1807650D02*
X1862830D01*
X1957000D02*
X1977510D01*
X2034930D02*
X2055440D01*
X2111290D02*
X2131020D01*
X2157890D02*
X2209490D01*
X170150Y12533540D02*
X245770D01*
X305240D02*
X325750D01*
X389870D02*
X465500D01*
X544290D02*
X612240D01*
X698600D02*
X719300D01*
X818520D02*
X839030D01*
X882500D02*
X935130D01*
X1012660D02*
X1033360D01*
X1132580D02*
X1153090D01*
X1247960D02*
X1272810D01*
X1374450D02*
X1450070D01*
X1583950D02*
X1604650D01*
X1703870D02*
X1724380D01*
X1801120D02*
X1869070D01*
X1957000D02*
X1977510D01*
X2034930D02*
X2055440D01*
X2111290D02*
X2131020D01*
X2152180D02*
X2214960D01*
X165140Y12535920D02*
X251720D01*
X305240D02*
X325750D01*
X384860D02*
X471450D01*
X539410D02*
X617230D01*
X698600D02*
X719300D01*
X818520D02*
X839030D01*
X878810D02*
X938550D01*
X1012660D02*
X1033360D01*
X1132580D02*
X1153090D01*
X1246900D02*
X1273870D01*
X1369430D02*
X1456020D01*
X1583950D02*
X1604650D01*
X1703870D02*
X1724380D01*
X1796240D02*
X1874060D01*
X1957000D02*
X1977510D01*
X2034930D02*
X2055440D01*
X2111290D02*
X2131020D01*
X2147660D02*
X2219450D01*
X161610Y12538300D02*
X257090D01*
X305240D02*
X325750D01*
X381330D02*
X476810D01*
X535200D02*
X621640D01*
X698600D02*
X719300D01*
X818520D02*
X839030D01*
X876800D02*
X941280D01*
X1012660D02*
X1033360D01*
X1132580D02*
X1153090D01*
X1245840D02*
X1274940D01*
X1365900D02*
X1461380D01*
X1583950D02*
X1604650D01*
X1703870D02*
X1724380D01*
X1792040D02*
X1878480D01*
X1957000D02*
X1977510D01*
X2034930D02*
X2055440D01*
X2111290D02*
X2131020D01*
X2143990D02*
X2222860D01*
X158350Y12540680D02*
X261420D01*
X305240D02*
X325750D01*
X378080D02*
X481150D01*
X531530D02*
X625440D01*
X698600D02*
X719300D01*
X818520D02*
X839030D01*
X877960D02*
X943480D01*
X1012660D02*
X1033360D01*
X1132580D02*
X1153090D01*
X1244780D02*
X1276000D01*
X1362650D02*
X1465720D01*
X1583950D02*
X1604650D01*
X1703870D02*
X1724380D01*
X1788370D02*
X1882280D01*
X1957000D02*
X1977510D01*
X2034930D02*
X2055440D01*
X2111290D02*
X2131020D01*
X2140850D02*
X2225740D01*
X155510Y12543060D02*
X265260D01*
X305240D02*
X325750D01*
X375240D02*
X484990D01*
X528480D02*
X628840D01*
X698600D02*
X719300D01*
X818520D02*
X839030D01*
X879120D02*
X945360D01*
X1012660D02*
X1033360D01*
X1132580D02*
X1153090D01*
X1243710D02*
X1277070D01*
X1359810D02*
X1469560D01*
X1583950D02*
X1604650D01*
X1703870D02*
X1724380D01*
X1785320D02*
X1885670D01*
X1957000D02*
X1977510D01*
X2034930D02*
X2055440D01*
X2111290D02*
X2131020D01*
X2138310D02*
X2228260D01*
X153080Y12545440D02*
X196990D01*
X213880D02*
X268310D01*
X305240D02*
X325750D01*
X372800D02*
X416720D01*
X433600D02*
X488040D01*
X525640D02*
X576070D01*
X580060D02*
X631800D01*
X698600D02*
X719300D01*
X818520D02*
X839030D01*
X880280D02*
X899570D01*
X913570D02*
X947000D01*
X1012660D02*
X1033360D01*
X1132580D02*
X1153090D01*
X1242650D02*
X1278130D01*
X1357370D02*
X1401290D01*
X1418170D02*
X1472610D01*
X1583950D02*
X1604650D01*
X1703870D02*
X1724380D01*
X1782470D02*
X1832900D01*
X1836890D02*
X1888640D01*
X1957000D02*
X1977510D01*
X2034930D02*
X2055440D01*
X2111290D02*
X2131020D01*
X2136110D02*
X2163970D01*
X2197490D02*
X2230380D01*
X151330Y12547820D02*
X183150D01*
X228700D02*
X267850D01*
X305240D02*
X325750D01*
X371050D02*
X402880D01*
X448420D02*
X487580D01*
X523140D02*
X559320D01*
X596170D02*
X634380D01*
X698600D02*
X719300D01*
X818520D02*
X839030D01*
X881440D02*
X891370D01*
X920460D02*
X948310D01*
X1012660D02*
X1033360D01*
X1132580D02*
X1153090D01*
X1241590D02*
X1279200D01*
X1355620D02*
X1387450D01*
X1432990D02*
X1472150D01*
X1583950D02*
X1604650D01*
X1703870D02*
X1724380D01*
X1779970D02*
X1816150D01*
X1853010D02*
X1891220D01*
X1957000D02*
X1977510D01*
X2034930D02*
X2055440D01*
X2111290D02*
X2131020D01*
X2134140D02*
X2157200D01*
X2203520D02*
X2232180D01*
X149710Y12550200D02*
X177030D01*
X236650D02*
X266500D01*
X305240D02*
X325750D01*
X369440D02*
X396760D01*
X456380D02*
X486230D01*
X520850D02*
X552010D01*
X603490D02*
X636840D01*
X698600D02*
X719300D01*
X818520D02*
X839030D01*
X882600D02*
X886920D01*
X924190D02*
X949370D01*
X1012660D02*
X1033360D01*
X1132580D02*
X1153090D01*
X1240530D02*
X1280260D01*
X1354010D02*
X1381330D01*
X1440950D02*
X1470800D01*
X1583950D02*
X1604650D01*
X1703870D02*
X1724380D01*
X1777680D02*
X1808850D01*
X1860330D02*
X1893670D01*
X1957000D02*
X1977510D01*
X2034930D02*
X2055440D01*
X2111290D02*
X2131020D01*
X2132480D02*
X2152360D01*
X2207580D02*
X2233770D01*
X148210Y12552580D02*
X173280D01*
X242960D02*
X265150D01*
X305240D02*
X325750D01*
X367940D02*
X393000D01*
X462690D02*
X484880D01*
X519610D02*
X547180D01*
X608630D02*
X639220D01*
X698600D02*
X719300D01*
X818520D02*
X839030D01*
X926560D02*
X950280D01*
X1012660D02*
X1033360D01*
X1132580D02*
X1153090D01*
X1239470D02*
X1259410D01*
X1260450D02*
X1281330D01*
X1352510D02*
X1377570D01*
X1447260D02*
X1469450D01*
X1583950D02*
X1604650D01*
X1703870D02*
X1724380D01*
X1776440D02*
X1804020D01*
X1865470D02*
X1896060D01*
X1957000D02*
X1977510D01*
X2034930D02*
X2055440D01*
X2111290D02*
X2148570D01*
X2210780D02*
X2235080D01*
X147080Y12554960D02*
X170460D01*
X248200D02*
X263800D01*
X305240D02*
X325750D01*
X366810D02*
X390190D01*
X467930D02*
X483530D01*
X521690D02*
X543040D01*
X612660D02*
X641130D01*
X698600D02*
X719300D01*
X818520D02*
X839030D01*
X928270D02*
X951080D01*
X1012660D02*
X1033360D01*
X1132580D02*
X1153090D01*
X1238410D02*
X1258360D01*
X1261500D02*
X1282390D01*
X1351380D02*
X1374760D01*
X1452500D02*
X1468100D01*
X1583950D02*
X1604650D01*
X1703870D02*
X1724380D01*
X1778520D02*
X1799880D01*
X1869500D02*
X1897970D01*
X1957000D02*
X1977510D01*
X2034930D02*
X2055440D01*
X2111290D02*
X2145560D01*
X2213100D02*
X2236120D01*
X146090Y12557340D02*
X168480D01*
X252430D02*
X262450D01*
X305240D02*
X325750D01*
X365810D02*
X388210D01*
X472160D02*
X482180D01*
X523760D02*
X539430D01*
X616050D02*
X642990D01*
X698600D02*
X719300D01*
X818520D02*
X839030D01*
X929650D02*
X951800D01*
X1012660D02*
X1033360D01*
X1132580D02*
X1153090D01*
X1237350D02*
X1257300D01*
X1262560D02*
X1283460D01*
X1350380D02*
X1372780D01*
X1456730D02*
X1466750D01*
X1583950D02*
X1604650D01*
X1703870D02*
X1724380D01*
X1780590D02*
X1796260D01*
X1872880D02*
X1899820D01*
X1957000D02*
X1977510D01*
X2034930D02*
X2055440D01*
X2111290D02*
X2143060D01*
X2214790D02*
X2237030D01*
X145460Y12559720D02*
X167000D01*
X256210D02*
X261110D01*
X305240D02*
X325750D01*
X365190D02*
X386730D01*
X475940D02*
X480840D01*
X525830D02*
X536590D01*
X618950D02*
X644770D01*
X698600D02*
X719300D01*
X818520D02*
X839030D01*
X930680D02*
X952200D01*
X1012660D02*
X1033360D01*
X1132580D02*
X1153090D01*
X1236290D02*
X1256250D01*
X1263610D02*
X1284520D01*
X1349760D02*
X1371300D01*
X1460510D02*
X1465410D01*
X1583950D02*
X1604650D01*
X1703870D02*
X1724380D01*
X1782660D02*
X1793430D01*
X1875790D02*
X1901600D01*
X1957000D02*
X1977510D01*
X2034930D02*
X2055440D01*
X2111290D02*
X2140780D01*
X2216110D02*
X2237760D01*
X144920Y12562100D02*
X165880D01*
X259660D02*
X259760D01*
X305240D02*
X325750D01*
X364650D02*
X385610D01*
X479390D02*
X479490D01*
X527900D02*
X534060D01*
X621500D02*
X646310D01*
X698600D02*
X719300D01*
X818520D02*
X839030D01*
X931450D02*
X952580D01*
X1012660D02*
X1033360D01*
X1132580D02*
X1153090D01*
X1235230D02*
X1255200D01*
X1264660D02*
X1285590D01*
X1349220D02*
X1370180D01*
X1463960D02*
X1464060D01*
X1583950D02*
X1604650D01*
X1703870D02*
X1724380D01*
X1784730D02*
X1790890D01*
X1878340D02*
X1903150D01*
X1957000D02*
X1977510D01*
X2034930D02*
X2055440D01*
X2111290D02*
X2138840D01*
X2217250D02*
X2238460D01*
X144510Y12564480D02*
X165200D01*
X305240D02*
X325750D01*
X364240D02*
X384930D01*
X529970D02*
X531780D01*
X623830D02*
X647760D01*
X698600D02*
X719300D01*
X818520D02*
X839030D01*
X932030D02*
X952870D01*
X1012660D02*
X1033360D01*
X1132580D02*
X1153090D01*
X1234170D02*
X1254140D01*
X1265720D02*
X1286650D01*
X1348810D02*
X1369500D01*
X1583950D02*
X1604650D01*
X1703870D02*
X1724380D01*
X1786800D02*
X1788610D01*
X1880660D02*
X1904600D01*
X1957000D02*
X1977510D01*
X2034930D02*
X2055440D01*
X2111290D02*
X2137220D01*
X2218010D02*
X2238760D01*
X144200Y12566860D02*
X164840D01*
X305240D02*
X325750D01*
X363930D02*
X384570D01*
X625750D02*
X649040D01*
X698600D02*
X719300D01*
X818520D02*
X839030D01*
X932430D02*
X953110D01*
X1012660D02*
X1033360D01*
X1132580D02*
X1153090D01*
X1233110D02*
X1253090D01*
X1266770D02*
X1287720D01*
X1348500D02*
X1369140D01*
X1583950D02*
X1604650D01*
X1703870D02*
X1724380D01*
X1882580D02*
X1905880D01*
X1957000D02*
X1977510D01*
X2034930D02*
X2055440D01*
X2111290D02*
X2135570D01*
X2218550D02*
X2239040D01*
X144010Y12569240D02*
X164660D01*
X305240D02*
X325750D01*
X363740D02*
X384390D01*
X627460D02*
X650290D01*
X698600D02*
X719300D01*
X818520D02*
X839030D01*
X932570D02*
X953200D01*
X1012660D02*
X1033360D01*
X1132580D02*
X1153090D01*
X1232050D02*
X1252040D01*
X1267820D02*
X1288780D01*
X1348310D02*
X1368960D01*
X1583950D02*
X1604650D01*
X1703870D02*
X1724380D01*
X1884290D02*
X1907120D01*
X1957000D02*
X1977510D01*
X2034930D02*
X2055440D01*
X2111290D02*
X2134310D01*
X2218910D02*
X2239130D01*
X143970Y12571620D02*
X164770D01*
X305240D02*
X325750D01*
X363690D02*
X384500D01*
X629010D02*
X651330D01*
X698600D02*
X719300D01*
X818520D02*
X839030D01*
X932710D02*
X953290D01*
X1012660D02*
X1033360D01*
X1132580D02*
X1153090D01*
X1230990D02*
X1250980D01*
X1268880D02*
X1289850D01*
X1348260D02*
X1369070D01*
X1583950D02*
X1604650D01*
X1703870D02*
X1724380D01*
X1885840D02*
X1908170D01*
X1957000D02*
X1977510D01*
X2034930D02*
X2055440D01*
X2111290D02*
X2133190D01*
X2218910D02*
X2239220D01*
X144100Y12574000D02*
X165000D01*
X305240D02*
X325750D01*
X363820D02*
X384720D01*
X630380D02*
X652360D01*
X698600D02*
X719300D01*
X818520D02*
X839030D01*
X932780D02*
X953290D01*
X1012660D02*
X1033360D01*
X1132580D02*
X1153090D01*
X1229920D02*
X1249930D01*
X1269930D02*
X1290910D01*
X1348390D02*
X1369290D01*
X1583950D02*
X1604650D01*
X1703870D02*
X1724380D01*
X1887210D02*
X1909200D01*
X1957000D02*
X1977510D01*
X2034930D02*
X2055440D01*
X2111290D02*
X2132190D01*
X2218910D02*
X2239120D01*
X144360Y12576380D02*
X165650D01*
X305240D02*
X325750D01*
X364080D02*
X385370D01*
X631660D02*
X653210D01*
X698600D02*
X719300D01*
X818520D02*
X839030D01*
X932780D02*
X953290D01*
X1012660D02*
X1033360D01*
X1132580D02*
X1153090D01*
X1228860D02*
X1248870D01*
X1270990D02*
X1291980D01*
X1348650D02*
X1369940D01*
X1583950D02*
X1604650D01*
X1703870D02*
X1724380D01*
X1888490D02*
X1910050D01*
X1957000D02*
X1977510D01*
X2034930D02*
X2055440D01*
X2111290D02*
X2132000D01*
X2218720D02*
X2239010D01*
X144720Y12578760D02*
X166690D01*
X305240D02*
X325750D01*
X364440D02*
X386420D01*
X632780D02*
X654070D01*
X698600D02*
X719300D01*
X818520D02*
X839030D01*
X932780D02*
X953290D01*
X1012660D02*
X1033360D01*
X1132580D02*
X1153090D01*
X1227800D02*
X1247820D01*
X1272040D02*
X1293040D01*
X1349010D02*
X1370990D01*
X1583950D02*
X1604650D01*
X1703870D02*
X1724380D01*
X1889610D02*
X1910900D01*
X1957000D02*
X1977510D01*
X2034930D02*
X2055440D01*
X2111290D02*
X2132000D01*
X2218220D02*
X2238700D01*
X145190Y12581140D02*
X168280D01*
X305240D02*
X325750D01*
X364920D02*
X388010D01*
X633820D02*
X654830D01*
X698600D02*
X719300D01*
X818520D02*
X839030D01*
X932780D02*
X953290D01*
X1012660D02*
X1033360D01*
X1132580D02*
X1153090D01*
X1226740D02*
X1246770D01*
X1273090D02*
X1294110D01*
X1349490D02*
X1372580D01*
X1583950D02*
X1604650D01*
X1703870D02*
X1724380D01*
X1890650D02*
X1911670D01*
X1957000D02*
X1977510D01*
X2034930D02*
X2055440D01*
X2111290D02*
X2132000D01*
X2217580D02*
X2238320D01*
X145780Y12583520D02*
X170450D01*
X305240D02*
X325750D01*
X365510D02*
X390180D01*
X634640D02*
X655590D01*
X698600D02*
X719300D01*
X818520D02*
X839030D01*
X932780D02*
X953290D01*
X1012660D02*
X1033360D01*
X1132580D02*
X1153090D01*
X1225680D02*
X1245710D01*
X1274150D02*
X1295170D01*
X1350080D02*
X1374750D01*
X1583950D02*
X1604650D01*
X1703870D02*
X1724380D01*
X1891470D02*
X1912430D01*
X1957000D02*
X1977510D01*
X2034930D02*
X2055440D01*
X2111290D02*
X2132000D01*
X2216750D02*
X2237680D01*
X146750Y12585900D02*
X173860D01*
X305240D02*
X325750D01*
X366470D02*
X393590D01*
X635340D02*
X656070D01*
X698600D02*
X719300D01*
X818520D02*
X839030D01*
X932780D02*
X953290D01*
X1012660D02*
X1033360D01*
X1132580D02*
X1153090D01*
X1224620D02*
X1244660D01*
X1275200D02*
X1296240D01*
X1351040D02*
X1378160D01*
X1583950D02*
X1604650D01*
X1703870D02*
X1724380D01*
X1892170D02*
X1912900D01*
X1957000D02*
X1977510D01*
X2034930D02*
X2055440D01*
X2111290D02*
X2132000D01*
X2215480D02*
X2236910D01*
X147960Y12588280D02*
X178290D01*
X305240D02*
X325750D01*
X367680D02*
X398020D01*
X635950D02*
X656530D01*
X698600D02*
X719300D01*
X818520D02*
X839030D01*
X932780D02*
X953290D01*
X1012660D02*
X1033360D01*
X1132580D02*
X1153090D01*
X1223560D02*
X1243610D01*
X1276250D02*
X1297300D01*
X1352250D02*
X1382590D01*
X1583950D02*
X1604650D01*
X1703870D02*
X1724380D01*
X1892780D02*
X1913360D01*
X1957000D02*
X1977510D01*
X2034930D02*
X2055440D01*
X2111290D02*
X2132000D01*
X2213770D02*
X2235960D01*
X149360Y12590660D02*
X184710D01*
X305240D02*
X325750D01*
X369080D02*
X404430D01*
X636460D02*
X656900D01*
X698600D02*
X719300D01*
X818520D02*
X839030D01*
X932780D02*
X953290D01*
X1012660D02*
X1033360D01*
X1132580D02*
X1153090D01*
X1222500D02*
X1242550D01*
X1277310D02*
X1298370D01*
X1353650D02*
X1389010D01*
X1583950D02*
X1604650D01*
X1703870D02*
X1724380D01*
X1893300D02*
X1913730D01*
X1957000D02*
X1977510D01*
X2034930D02*
X2055440D01*
X2111290D02*
X2132000D01*
X2211490D02*
X2234840D01*
X151110Y12593040D02*
X194860D01*
X305240D02*
X325750D01*
X370830D02*
X414580D01*
X636920D02*
X657250D01*
X698600D02*
X719300D01*
X818520D02*
X839030D01*
X932780D02*
X953290D01*
X1012660D02*
X1033360D01*
X1132580D02*
X1153090D01*
X1221440D02*
X1241500D01*
X1278360D02*
X1299430D01*
X1355400D02*
X1399150D01*
X1583950D02*
X1604650D01*
X1703870D02*
X1724380D01*
X1893760D02*
X1914080D01*
X1957000D02*
X1977510D01*
X2034930D02*
X2055440D01*
X2111290D02*
X2132000D01*
X2208270D02*
X2233610D01*
X153430Y12595420D02*
X207600D01*
X305240D02*
X325750D01*
X373160D02*
X427330D01*
X637160D02*
X657550D01*
X698600D02*
X719300D01*
X818520D02*
X839030D01*
X932780D02*
X953290D01*
X1012660D02*
X1033360D01*
X1132580D02*
X1153090D01*
X1220380D02*
X1240440D01*
X1279420D02*
X1300500D01*
X1357730D02*
X1411900D01*
X1583950D02*
X1604650D01*
X1703870D02*
X1724380D01*
X1894000D02*
X1914380D01*
X1957000D02*
X1977510D01*
X2034930D02*
X2055440D01*
X2111290D02*
X2132000D01*
X2203960D02*
X2232020D01*
X155970Y12597800D02*
X218880D01*
X305240D02*
X325750D01*
X375690D02*
X438610D01*
X637400D02*
X657810D01*
X698600D02*
X719300D01*
X818520D02*
X839030D01*
X932780D02*
X953290D01*
X1012660D02*
X1033360D01*
X1132580D02*
X1153090D01*
X1219320D02*
X1239390D01*
X1280470D02*
X1301560D01*
X1360260D02*
X1423180D01*
X1583950D02*
X1604650D01*
X1703870D02*
X1724380D01*
X1894230D02*
X1914650D01*
X1957000D02*
X1977510D01*
X2034930D02*
X2055440D01*
X2111290D02*
X2132000D01*
X2196380D02*
X2230110D01*
X159330Y12600180D02*
X228520D01*
X305240D02*
X325750D01*
X379050D02*
X448250D01*
X509830D02*
X658000D01*
X698600D02*
X719300D01*
X818520D02*
X839030D01*
X932780D02*
X953290D01*
X1012660D02*
X1033360D01*
X1132580D02*
X1153090D01*
X1218260D02*
X1238340D01*
X1281520D02*
X1302620D01*
X1363620D02*
X1432820D01*
X1583950D02*
X1604650D01*
X1703870D02*
X1724380D01*
X1766660D02*
X1914840D01*
X1957000D02*
X1977510D01*
X2034930D02*
X2055440D01*
X2111290D02*
X2227920D01*
X163470Y12602560D02*
X236710D01*
X305240D02*
X325750D01*
X383200D02*
X456440D01*
X509680D02*
X658090D01*
X698600D02*
X719300D01*
X818520D02*
X839030D01*
X932780D02*
X953290D01*
X1012660D02*
X1033360D01*
X1132580D02*
X1153090D01*
X1217200D02*
X1237280D01*
X1282580D02*
X1303690D01*
X1367770D02*
X1441010D01*
X1583950D02*
X1604650D01*
X1703870D02*
X1724380D01*
X1766510D02*
X1914930D01*
X1957000D02*
X1977510D01*
X2034930D02*
X2055440D01*
X2111290D02*
X2225390D01*
X168780Y12604940D02*
X242310D01*
X305240D02*
X325750D01*
X388510D02*
X462030D01*
X509540D02*
X658170D01*
X698600D02*
X719300D01*
X818520D02*
X839030D01*
X932780D02*
X953290D01*
X1012660D02*
X1033360D01*
X1132580D02*
X1153090D01*
X1216130D02*
X1236230D01*
X1283630D02*
X1304750D01*
X1373080D02*
X1446600D01*
X1583950D02*
X1604650D01*
X1703870D02*
X1724380D01*
X1766370D02*
X1915010D01*
X1957000D02*
X1977510D01*
X2034930D02*
X2055440D01*
X2111290D02*
X2222220D01*
X176240Y12607320D02*
X246720D01*
X305240D02*
X325750D01*
X395970D02*
X466440D01*
X509620D02*
X658080D01*
X698600D02*
X719300D01*
X818520D02*
X839030D01*
X932780D02*
X953290D01*
X1012660D02*
X1033360D01*
X1132580D02*
X1153090D01*
X1215070D02*
X1235180D01*
X1284680D02*
X1305820D01*
X1380540D02*
X1451010D01*
X1583950D02*
X1604650D01*
X1703870D02*
X1724380D01*
X1766460D02*
X1914920D01*
X1957000D02*
X1977510D01*
X2034930D02*
X2055440D01*
X2111290D02*
X2218390D01*
X185810Y12609700D02*
X250080D01*
X305240D02*
X325750D01*
X405540D02*
X469800D01*
X509710D02*
X658000D01*
X698600D02*
X719300D01*
X818450D02*
X839030D01*
X932780D02*
X953290D01*
X1012660D02*
X1033360D01*
X1132510D02*
X1153090D01*
X1214010D02*
X1234120D01*
X1285740D02*
X1306880D01*
X1390110D02*
X1454370D01*
X1583950D02*
X1604650D01*
X1703800D02*
X1724380D01*
X1766540D02*
X1914840D01*
X1957000D02*
X1977510D01*
X2034930D02*
X2055440D01*
X2111290D02*
X2213040D01*
X196940Y12612080D02*
X252820D01*
X305240D02*
X325750D01*
X416670D02*
X472550D01*
X509850D02*
X657850D01*
X698600D02*
X719300D01*
X818310D02*
X839030D01*
X932780D02*
X953290D01*
X1012660D02*
X1033360D01*
X1132370D02*
X1153090D01*
X1212950D02*
X1233070D01*
X1286790D02*
X1307950D01*
X1401240D02*
X1457120D01*
X1583950D02*
X1604650D01*
X1703660D02*
X1724380D01*
X1766690D02*
X1914690D01*
X1957000D02*
X1977510D01*
X2034930D02*
X2055440D01*
X2111290D02*
X2205410D01*
X210120Y12614460D02*
X255210D01*
X305240D02*
X325750D01*
X429850D02*
X474930D01*
X510020D02*
X529340D01*
X637410D02*
X657670D01*
X698600D02*
X719300D01*
X818160D02*
X839030D01*
X932780D02*
X953290D01*
X1012660D02*
X1033360D01*
X1132220D02*
X1153090D01*
X1211890D02*
X1232010D01*
X1287850D02*
X1309010D01*
X1414420D02*
X1459500D01*
X1583950D02*
X1604650D01*
X1703510D02*
X1724380D01*
X1766860D02*
X1786180D01*
X1894240D02*
X1914510D01*
X1957000D02*
X1977510D01*
X2034930D02*
X2055440D01*
X2111290D02*
X2189420D01*
X220070Y12616840D02*
X257220D01*
X305240D02*
X325750D01*
X439800D02*
X476940D01*
X510260D02*
X529680D01*
X637150D02*
X657410D01*
X698600D02*
X719370D01*
X817930D02*
X839030D01*
X932780D02*
X953290D01*
X1012660D02*
X1033430D01*
X1132000D02*
X1153090D01*
X1210830D02*
X1230960D01*
X1288900D02*
X1310080D01*
X1424370D02*
X1461520D01*
X1583950D02*
X1604720D01*
X1703290D02*
X1724380D01*
X1767100D02*
X1786520D01*
X1893990D02*
X1914250D01*
X1957000D02*
X1977510D01*
X2034930D02*
X2055440D01*
X2111290D02*
X2132000D01*
X227110Y12619220D02*
X258840D01*
X305240D02*
X325750D01*
X446840D02*
X478570D01*
X510620D02*
X530020D01*
X636900D02*
X657050D01*
X698710D02*
X719450D01*
X817690D02*
X839030D01*
X932780D02*
X953290D01*
X1012770D02*
X1033510D01*
X1131760D02*
X1153090D01*
X1209770D02*
X1229910D01*
X1289950D02*
X1311140D01*
X1431410D02*
X1463140D01*
X1584060D02*
X1604800D01*
X1703050D02*
X1724380D01*
X1767460D02*
X1786860D01*
X1893740D02*
X1913890D01*
X1957000D02*
X1977510D01*
X2034930D02*
X2055440D01*
X2111290D02*
X2132000D01*
X231950Y12621600D02*
X260060D01*
X305240D02*
X325750D01*
X451670D02*
X479790D01*
X511010D02*
X530540D01*
X636390D02*
X656650D01*
X698830D02*
X719560D01*
X817360D02*
X839030D01*
X932780D02*
X953290D01*
X1012890D02*
X1033620D01*
X1131430D02*
X1153090D01*
X1208710D02*
X1228850D01*
X1291010D02*
X1312210D01*
X1436240D02*
X1464360D01*
X1584180D02*
X1604910D01*
X1702720D02*
X1724380D01*
X1767850D02*
X1787370D01*
X1893220D02*
X1913490D01*
X1957000D02*
X1977510D01*
X2034930D02*
X2055440D01*
X2111290D02*
X2132000D01*
X235480Y12623980D02*
X261070D01*
X305240D02*
X325750D01*
X455200D02*
X480790D01*
X511560D02*
X531070D01*
X635860D02*
X656100D01*
X698960D02*
X719730D01*
X816870D02*
X839030D01*
X932780D02*
X953290D01*
X1013020D02*
X1033790D01*
X1130940D02*
X1153090D01*
X1207650D02*
X1227800D01*
X1292060D02*
X1313270D01*
X1439770D02*
X1465360D01*
X1584310D02*
X1605080D01*
X1702230D02*
X1724380D01*
X1768390D02*
X1787900D01*
X1892690D02*
X1912940D01*
X1957000D02*
X1977510D01*
X2034930D02*
X2055440D01*
X2111340D02*
X2132000D01*
X238060Y12626360D02*
X261820D01*
X305240D02*
X325750D01*
X457790D02*
X481550D01*
X512110D02*
X531700D01*
X635160D02*
X655530D01*
X699170D02*
X719920D01*
X816380D02*
X839030D01*
X932780D02*
X953290D01*
X1013230D02*
X1033980D01*
X1130450D02*
X1153090D01*
X1206590D02*
X1226750D01*
X1293110D02*
X1314340D01*
X1442360D02*
X1466120D01*
X1584520D02*
X1605270D01*
X1701730D02*
X1724380D01*
X1768940D02*
X1788530D01*
X1891990D02*
X1912370D01*
X1957000D02*
X1977510D01*
X2034930D02*
X2055440D01*
X2111480D02*
X2132090D01*
X239910Y12628740D02*
X262400D01*
X305240D02*
X325750D01*
X459640D02*
X482130D01*
X512680D02*
X532360D01*
X634410D02*
X654870D01*
X699420D02*
X720370D01*
X815680D02*
X839030D01*
X932780D02*
X953290D01*
X1013480D02*
X1034440D01*
X1129750D02*
X1153090D01*
X1205530D02*
X1225690D01*
X1294170D02*
X1315400D01*
X1444210D02*
X1466700D01*
X1584770D02*
X1605730D01*
X1701030D02*
X1724380D01*
X1769510D02*
X1789200D01*
X1891240D02*
X1911710D01*
X1957000D02*
X1977510D01*
X2034930D02*
X2055440D01*
X2111610D02*
X2132190D01*
X241170Y12631120D02*
X262960D01*
X305240D02*
X325750D01*
X460900D02*
X482690D01*
X513250D02*
X533240D01*
X633490D02*
X654190D01*
X699670D02*
X720830D01*
X814980D02*
X839030D01*
X932780D02*
X953290D01*
X1013730D02*
X1034900D01*
X1129040D02*
X1153090D01*
X1204470D02*
X1224640D01*
X1295220D02*
X1316470D01*
X1445470D02*
X1467260D01*
X1585020D02*
X1606190D01*
X1700330D02*
X1724380D01*
X1770080D02*
X1790080D01*
X1890320D02*
X1911030D01*
X1957000D02*
X1977510D01*
X2034930D02*
X2055440D01*
X2111810D02*
X2132390D01*
X242000Y12633500D02*
X263270D01*
X305240D02*
X325750D01*
X461730D02*
X483000D01*
X514120D02*
X534240D01*
X632490D02*
X653430D01*
X700020D02*
X721510D01*
X814090D02*
X839030D01*
X932780D02*
X953290D01*
X1014080D02*
X1035570D01*
X1128150D02*
X1153090D01*
X1203410D02*
X1223580D01*
X1296280D02*
X1317530D01*
X1446300D02*
X1467570D01*
X1585370D02*
X1606860D01*
X1699440D02*
X1724380D01*
X1770950D02*
X1791070D01*
X1889330D02*
X1910270D01*
X1957000D02*
X1977510D01*
X2034930D02*
X2055440D01*
X2112090D02*
X2132640D01*
X242610Y12635880D02*
X263440D01*
X305240D02*
X325750D01*
X462330D02*
X483170D01*
X514970D02*
X535400D01*
X631330D02*
X652660D01*
X700440D02*
X722200D01*
X813140D02*
X839030D01*
X932780D02*
X953290D01*
X1014510D02*
X1036260D01*
X1127200D02*
X1153090D01*
X1202340D02*
X1222530D01*
X1297330D02*
X1318600D01*
X1446900D02*
X1467740D01*
X1585790D02*
X1607550D01*
X1698490D02*
X1724380D01*
X1771800D02*
X1792240D01*
X1888170D02*
X1909500D01*
X1957000D02*
X1977510D01*
X2034930D02*
X2055440D01*
X2112370D02*
X2133210D01*
X242840Y12638260D02*
X263440D01*
X305240D02*
X325750D01*
X462560D02*
X483170D01*
X516000D02*
X536640D01*
X630090D02*
X651630D01*
X700860D02*
X723060D01*
X811900D02*
X839030D01*
X932780D02*
X953290D01*
X1014930D02*
X1037120D01*
X1125960D02*
X1153090D01*
X1201280D02*
X1221480D01*
X1298380D02*
X1319660D01*
X1447130D02*
X1467740D01*
X1586210D02*
X1608410D01*
X1697250D02*
X1724380D01*
X1772830D02*
X1793480D01*
X1886930D02*
X1908460D01*
X1957000D02*
X1977510D01*
X2034930D02*
X2055440D01*
X2112750D02*
X2133830D01*
X242840Y12640640D02*
X263360D01*
X305240D02*
X325750D01*
X462570D02*
X483090D01*
X517040D02*
X538100D01*
X628620D02*
X650560D01*
X701520D02*
X723990D01*
X810560D02*
X839030D01*
X932780D02*
X953290D01*
X1015590D02*
X1038060D01*
X1124620D02*
X1153090D01*
X1200220D02*
X1220420D01*
X1299440D02*
X1320730D01*
X1447140D02*
X1467660D01*
X1586870D02*
X1609350D01*
X1695910D02*
X1724380D01*
X1773870D02*
X1794940D01*
X1885460D02*
X1907390D01*
X1957000D02*
X1977510D01*
X2034930D02*
X2055440D01*
X2113200D02*
X2134540D01*
X242600Y12643020D02*
X263270D01*
X305240D02*
X325750D01*
X462330D02*
X482990D01*
X518180D02*
X539620D01*
X627110D02*
X649320D01*
X702250D02*
X725300D01*
X808920D02*
X839030D01*
X932780D02*
X953290D01*
X1016310D02*
X1039370D01*
X1122980D02*
X1153090D01*
X1199160D02*
X1219370D01*
X1300490D02*
X1321790D01*
X1446900D02*
X1467560D01*
X1587600D02*
X1610650D01*
X1694270D02*
X1724380D01*
X1775010D02*
X1796460D01*
X1883950D02*
X1906150D01*
X1957000D02*
X1977510D01*
X2034930D02*
X2055440D01*
X2113640D02*
X2135470D01*
X242140Y12645400D02*
X262900D01*
X305240D02*
X325750D01*
X461870D02*
X482620D01*
X519360D02*
X541520D01*
X625200D02*
X648030D01*
X703000D02*
X726710D01*
X807190D02*
X839030D01*
X932780D02*
X953290D01*
X1017060D02*
X1040770D01*
X1121250D02*
X1153090D01*
X1198100D02*
X1218320D01*
X1301540D02*
X1322860D01*
X1446440D02*
X1467190D01*
X1588350D02*
X1612060D01*
X1692540D02*
X1724380D01*
X1776190D02*
X1798360D01*
X1882040D02*
X1904870D01*
X1957000D02*
X1977510D01*
X2034930D02*
X2055440D01*
X2114360D02*
X2136540D01*
X241260Y12647780D02*
X262490D01*
X305240D02*
X325750D01*
X460980D02*
X482210D01*
X520770D02*
X543600D01*
X623130D02*
X646620D01*
X703950D02*
X728210D01*
X805170D02*
X839030D01*
X932780D02*
X953290D01*
X1018010D02*
X1042270D01*
X1119230D02*
X1153090D01*
X1197040D02*
X1217260D01*
X1302600D02*
X1323920D01*
X1445550D02*
X1466780D01*
X1589300D02*
X1613560D01*
X1690520D02*
X1724380D01*
X1777600D02*
X1800440D01*
X1879970D02*
X1903460D01*
X1957000D02*
X1977510D01*
X2034930D02*
X2055440D01*
X2115070D02*
X2137950D01*
X2224060D02*
X2226820D01*
X240080Y12650160D02*
X261850D01*
X305240D02*
X325750D01*
X459800D02*
X481570D01*
X522250D02*
X545980D01*
X620750D02*
X645130D01*
X704900D02*
X730280D01*
X802850D02*
X839030D01*
X932780D02*
X953290D01*
X1018960D02*
X1044340D01*
X1116910D02*
X1153090D01*
X1195980D02*
X1216210D01*
X1303650D02*
X1324990D01*
X1444370D02*
X1466140D01*
X1590250D02*
X1615630D01*
X1688200D02*
X1724380D01*
X1779080D02*
X1802810D01*
X1877590D02*
X1901970D01*
X1957000D02*
X1977510D01*
X2034930D02*
X2055440D01*
X2115920D02*
X2139620D01*
X2220960D02*
X2228270D01*
X157660Y12652540D02*
X159720D01*
X238420D02*
X261130D01*
X305240D02*
X325750D01*
X377390D02*
X379450D01*
X458150D02*
X480860D01*
X523830D02*
X548730D01*
X618120D02*
X643550D01*
X706090D02*
X732630D01*
X800160D02*
X839030D01*
X932780D02*
X953290D01*
X1020150D02*
X1046690D01*
X1114220D02*
X1153090D01*
X1194920D02*
X1215150D01*
X1304710D02*
X1326050D01*
X1361960D02*
X1364020D01*
X1442720D02*
X1465430D01*
X1591440D02*
X1617980D01*
X1685510D02*
X1724380D01*
X1780670D02*
X1805560D01*
X1874960D02*
X1900390D01*
X1957000D02*
X1977510D01*
X2034930D02*
X2055440D01*
X2116890D02*
X2141630D01*
X2217290D02*
X2229720D01*
X156360Y12654920D02*
X163760D01*
X236090D02*
X260070D01*
X305240D02*
X325750D01*
X376090D02*
X383490D01*
X455820D02*
X479790D01*
X525610D02*
X551780D01*
X615140D02*
X641730D01*
X707410D02*
X735350D01*
X797040D02*
X818110D01*
X818520D02*
X839030D01*
X932780D02*
X953290D01*
X1021470D02*
X1049410D01*
X1111100D02*
X1132100D01*
X1133360D02*
X1153090D01*
X1193860D02*
X1214100D01*
X1305760D02*
X1327120D01*
X1360660D02*
X1368060D01*
X1440390D02*
X1464360D01*
X1592760D02*
X1620700D01*
X1682390D02*
X1703390D01*
X1704650D02*
X1724380D01*
X1782450D02*
X1808620D01*
X1871980D02*
X1898570D01*
X1957000D02*
X1977510D01*
X2034930D02*
X2055440D01*
X2117970D02*
X2144060D01*
X2213220D02*
X2231160D01*
X155050Y12657300D02*
X168200D01*
X233210D02*
X258820D01*
X305240D02*
X325750D01*
X374780D02*
X387930D01*
X452940D02*
X478540D01*
X527520D02*
X555380D01*
X611540D02*
X639810D01*
X708900D02*
X738770D01*
X793090D02*
X816430D01*
X818520D02*
X839030D01*
X932780D02*
X953290D01*
X1022960D02*
X1052830D01*
X1107160D02*
X1130450D01*
X1133360D02*
X1153090D01*
X1192800D02*
X1213050D01*
X1306810D02*
X1328180D01*
X1359350D02*
X1372500D01*
X1437510D02*
X1463110D01*
X1594250D02*
X1624120D01*
X1678440D02*
X1701740D01*
X1704650D02*
X1724380D01*
X1784360D02*
X1812220D01*
X1868380D02*
X1896640D01*
X1957000D02*
X1977510D01*
X2034930D02*
X2055440D01*
X2119310D02*
X2147240D01*
X2208470D02*
X2232610D01*
X153750Y12659680D02*
X174130D01*
X229260D02*
X257390D01*
X305240D02*
X325750D01*
X373480D02*
X393860D01*
X448990D02*
X477120D01*
X529770D02*
X560060D01*
X606860D02*
X637690D01*
X710610D02*
X743450D01*
X787870D02*
X814660D01*
X818520D02*
X839030D01*
X932780D02*
X953290D01*
X1024670D02*
X1057520D01*
X1101930D02*
X1128620D01*
X1133360D02*
X1153090D01*
X1191740D02*
X1211990D01*
X1307870D02*
X1329250D01*
X1358050D02*
X1378430D01*
X1433560D02*
X1461690D01*
X1595960D02*
X1628810D01*
X1673220D02*
X1699910D01*
X1704650D02*
X1724380D01*
X1786610D02*
X1816900D01*
X1863700D02*
X1894530D01*
X1957000D02*
X1977510D01*
X2034930D02*
X2055440D01*
X2120780D02*
X2151660D01*
X2202260D02*
X2234060D01*
X152450Y12662060D02*
X181730D01*
X222910D02*
X255600D01*
X305240D02*
X325750D01*
X372170D02*
X401450D01*
X442640D02*
X475330D01*
X532100D02*
X566440D01*
X600630D02*
X635320D01*
X712450D02*
X750450D01*
X779900D02*
X812650D01*
X818520D02*
X839030D01*
X932780D02*
X953290D01*
X1026510D02*
X1064510D01*
X1093970D02*
X1126560D01*
X1133360D02*
X1153090D01*
X1190680D02*
X1210940D01*
X1308920D02*
X1330310D01*
X1356740D02*
X1386020D01*
X1427210D02*
X1459900D01*
X1597800D02*
X1635800D01*
X1665250D02*
X1697850D01*
X1704650D02*
X1724380D01*
X1788940D02*
X1823270D01*
X1857460D02*
X1892160D01*
X1957000D02*
X1977510D01*
X2034930D02*
X2055440D01*
X2122620D02*
X2157870D01*
X2194110D02*
X2234900D01*
X151140Y12664440D02*
X201160D01*
X208660D02*
X253590D01*
X305240D02*
X325750D01*
X370870D02*
X420890D01*
X428390D02*
X473320D01*
X534580D02*
X581920D01*
X585200D02*
X632730D01*
X714520D02*
X810310D01*
X818520D02*
X839030D01*
X886290D02*
X980630D01*
X1028580D02*
X1124240D01*
X1133360D02*
X1153090D01*
X1189620D02*
X1209890D01*
X1309970D02*
X1331380D01*
X1355440D02*
X1405460D01*
X1412960D02*
X1457890D01*
X1599870D02*
X1695530D01*
X1704650D02*
X1724380D01*
X1791420D02*
X1838760D01*
X1842040D02*
X1889570D01*
X1957000D02*
X1977510D01*
X2034930D02*
X2055440D01*
X2124660D02*
X2231600D01*
X149840Y12666820D02*
X251350D01*
X305240D02*
X325750D01*
X369560D02*
X471080D01*
X537400D02*
X629910D01*
X716910D02*
X807710D01*
X818520D02*
X839030D01*
X886290D02*
X980630D01*
X1030970D02*
X1121640D01*
X1133360D02*
X1153090D01*
X1188550D02*
X1208830D01*
X1311030D02*
X1332440D01*
X1354130D02*
X1455650D01*
X1602260D02*
X1692930D01*
X1704650D02*
X1724380D01*
X1794240D02*
X1886750D01*
X1957000D02*
X1977510D01*
X2034930D02*
X2055440D01*
X2126920D02*
X2228160D01*
X151120Y12669200D02*
X248560D01*
X305240D02*
X325750D01*
X370840D02*
X468280D01*
X540750D02*
X626560D01*
X719640D02*
X804840D01*
X818520D02*
X839030D01*
X886290D02*
X980630D01*
X1033710D02*
X1118700D01*
X1133360D02*
X1153090D01*
X1187490D02*
X1207780D01*
X1312080D02*
X1333510D01*
X1355410D02*
X1452850D01*
X1605000D02*
X1689990D01*
X1704650D02*
X1724380D01*
X1797590D02*
X1883400D01*
X1957000D02*
X1977510D01*
X2034930D02*
X2055440D01*
X2129720D02*
X2224310D01*
X155200Y12671580D02*
X245310D01*
X305240D02*
X325750D01*
X374930D02*
X465030D01*
X544350D02*
X622830D01*
X722910D02*
X801260D01*
X818520D02*
X839030D01*
X886290D02*
X980630D01*
X1036970D02*
X1115160D01*
X1133360D02*
X1153090D01*
X1186430D02*
X1206720D01*
X1313140D02*
X1334570D01*
X1359500D02*
X1449600D01*
X1608260D02*
X1686450D01*
X1704650D02*
X1724380D01*
X1801190D02*
X1879660D01*
X1957000D02*
X1977510D01*
X2034930D02*
X2055440D01*
X2132800D02*
X2219920D01*
X160370Y12673960D02*
X241450D01*
X305240D02*
X325750D01*
X380100D02*
X461180D01*
X548500D02*
X618620D01*
X726680D02*
X797220D01*
X818520D02*
X839030D01*
X886290D02*
X980630D01*
X1040740D02*
X1111130D01*
X1133360D02*
X1153090D01*
X1185370D02*
X1205670D01*
X1314190D02*
X1335640D01*
X1364670D02*
X1445750D01*
X1612030D02*
X1682420D01*
X1704650D02*
X1724380D01*
X1805340D02*
X1875450D01*
X1957000D02*
X1977510D01*
X2034930D02*
X2055440D01*
X2136280D02*
X2214960D01*
X166960Y12676340D02*
X236700D01*
X305240D02*
X325750D01*
X386680D02*
X456420D01*
X553300D02*
X613970D01*
X731230D02*
X792040D01*
X818520D02*
X839030D01*
X886290D02*
X980630D01*
X1045300D02*
X1106370D01*
X1133360D02*
X1153090D01*
X1184310D02*
X1204620D01*
X1315240D02*
X1336700D01*
X1371250D02*
X1440990D01*
X1616590D02*
X1677660D01*
X1704650D02*
X1724380D01*
X1810140D02*
X1870810D01*
X1957000D02*
X1977510D01*
X2034930D02*
X2055440D01*
X2141040D02*
X2208620D01*
X175120Y12678720D02*
X229930D01*
X305240D02*
X325750D01*
X394850D02*
X449650D01*
X559990D02*
X607130D01*
X737340D02*
X785630D01*
X818520D02*
X839030D01*
X886290D02*
X980630D01*
X1051410D02*
X1100070D01*
X1133360D02*
X1153090D01*
X1183250D02*
X1203560D01*
X1316300D02*
X1337770D01*
X1379420D02*
X1434220D01*
X1622690D02*
X1671360D01*
X1704650D02*
X1724380D01*
X1816820D02*
X1863970D01*
X1957000D02*
X1977510D01*
X2034930D02*
X2055440D01*
X2147440D02*
X2200690D01*
X187240Y12681100D02*
X218980D01*
X406970D02*
X438700D01*
X569570D02*
X597550D01*
X746750D02*
X776010D01*
X818520D02*
X839030D01*
X932780D02*
X953290D01*
X1060820D02*
X1089420D01*
X1391540D02*
X1423270D01*
X1632100D02*
X1660710D01*
X1826400D02*
X1854390D01*
X1957000D02*
X1977510D01*
X2034930D02*
X2055440D01*
X2158100D02*
X2189000D01*
X818520Y12683480D02*
X839030D01*
X932780D02*
X953290D01*
X1957000D02*
X1977510D01*
X2034930D02*
X2055440D01*
X818520Y12685860D02*
X839030D01*
X932780D02*
X953290D01*
X1957000D02*
X1977510D01*
X2034930D02*
X2055440D01*
X818520Y12688240D02*
X839030D01*
X932780D02*
X953290D01*
X1957000D02*
X1977510D01*
X2034930D02*
X2055440D01*
X818520Y12690620D02*
X839030D01*
X932780D02*
X953290D01*
X1957000D02*
X1977510D01*
X2034930D02*
X2055440D01*
X818520Y12693000D02*
X839030D01*
X932780D02*
X953290D01*
X1957000D02*
X1977510D01*
X2034930D02*
X2055440D01*
X818520Y12695380D02*
X839030D01*
X932780D02*
X953290D01*
X1957000D02*
X1977510D01*
X2034930D02*
X2055440D01*
X818520Y12697760D02*
X839030D01*
X932780D02*
X953290D01*
X1957000D02*
X1977510D01*
X2034930D02*
X2055440D01*
X818520Y12700140D02*
X839030D01*
X932780D02*
X953290D01*
X1957000D02*
X1977510D01*
X2034930D02*
X2055440D01*
X818520Y12702520D02*
X839030D01*
X932780D02*
X953290D01*
X1957000D02*
X1977510D01*
X2034930D02*
X2055440D01*
X818520Y12704900D02*
X839030D01*
X932780D02*
X953290D01*
X1957000D02*
X1977510D01*
X2034930D02*
X2055440D01*
X818520Y12707280D02*
X839030D01*
X932780D02*
X953290D01*
X1957000D02*
X1977510D01*
X2034930D02*
X2055440D01*
X818520Y12709660D02*
X839030D01*
X932780D02*
X953290D01*
X1957000D02*
X1977510D01*
X2034930D02*
X2055440D01*
X818520Y12712040D02*
X839030D01*
X932780D02*
X953290D01*
X1957000D02*
X1977510D01*
X2034930D02*
X2055440D01*
X818520Y12714420D02*
X839030D01*
X932780D02*
X953290D01*
X1957000D02*
X1977510D01*
X2034930D02*
X2055440D01*
X306800Y12716800D02*
X323750D01*
X818520D02*
X839030D01*
X1957000D02*
X1977510D01*
X2034930D02*
X2055440D01*
X304330Y12719180D02*
X326270D01*
X818520D02*
X839030D01*
X1957000D02*
X1977510D01*
X2034930D02*
X2055440D01*
X302470Y12721560D02*
X328120D01*
X818520D02*
X839030D01*
X1957000D02*
X1977510D01*
X2034930D02*
X2055440D01*
X301260Y12723940D02*
X329330D01*
X818520D02*
X839030D01*
X1957000D02*
X1977510D01*
X2034930D02*
X2055440D01*
X300580Y12726320D02*
X330010D01*
X818520D02*
X839030D01*
X1957000D02*
X1977510D01*
X2034930D02*
X2055440D01*
X300260Y12728700D02*
X330350D01*
X818520D02*
X839030D01*
X1957000D02*
X1977510D01*
X2034930D02*
X2055440D01*
X300380Y12731080D02*
X330190D01*
X818520D02*
X839030D01*
X1957000D02*
X1977510D01*
X2034930D02*
X2055440D01*
X300890Y12733460D02*
X329610D01*
X818520D02*
X839030D01*
X1957000D02*
X1977510D01*
X2034930D02*
X2055440D01*
X301820Y12735840D02*
X328600D01*
X818520D02*
X839030D01*
X1957000D02*
X1977510D01*
X2034930D02*
X2055440D01*
X303490Y12738220D02*
X327010D01*
X818520D02*
X839030D01*
X1957000D02*
X1977510D01*
X2034930D02*
X2055440D01*
X305860Y12740600D02*
X324600D01*
X818520D02*
X839030D01*
X1957000D02*
X1977510D01*
X2034930D02*
X2055440D01*
X310690Y12742980D02*
X319910D01*
X818520D02*
X839030D01*
X1957000D02*
X1977510D01*
X2034930D02*
X2055440D01*
D02*
D93*
X1015240Y7615240D03*
X3045240D03*
D02*
D140*
X765240Y1740240D03*
Y3640240D03*
X1015240Y11090240D03*
X2030240Y1740240D03*
Y3640240D03*
X3045240Y11090240D03*
X3295240Y1740240D03*
Y3640240D03*
D02*
D141*
X1015240Y6065240D03*
X3045240D03*
D02*
D142*
X765240Y2590240D03*
Y4490240D03*
X2030240Y2590240D03*
Y4490240D03*
X3295240Y315240D03*
Y2590240D03*
Y4490240D03*
Y12565240D03*
X0Y0D02*
M02*
